<svg xmlns="http://www.w3.org/2000/svg" width="1920" height="600"><path d="M236,-273L790,-234L1228,-253Z" fill="#c6e9d1" stroke="#c6e9d1" stroke-width="1.51"/><path d="M236,-273L1228,-253L1678,-261Z" fill="#b4dfd9" stroke="#b4dfd9" stroke-width="1.51"/><path d="M1175,839L539,867L1736,846Z" fill="#3f82ae" stroke="#3f82ae" stroke-width="1.51"/><path d="M1924,817L1736,846L2050,801Z" fill="#0a5b9e" stroke="#0a5b9e" stroke-width="1.51"/><path d="M236,-273L1678,-261L2107,-262Z" fill="#a6d0dc" stroke="#a6d0dc" stroke-width="1.51"/><path d="M1766,-241L1951,-215L2107,-262Z" fill="#8fa7c4" stroke="#8fa7c4" stroke-width="1.51"/><path d="M1678,-261L1766,-241L2107,-262Z" fill="#93aecc" stroke="#93aecc" stroke-width="1.51"/><path d="M1952,-95L1972,60L2123,-105Z" fill="#809cb2" stroke="#809cb2" stroke-width="1.51"/><path d="M2107,-262L1951,-215L2123,-105Z" fill="#889db8" stroke="#889db8" stroke-width="1.51"/><path d="M2123,-105L1972,60L2139,97Z" fill="#7a96a9" stroke="#7a96a9" stroke-width="1.51"/><path d="M1972,60L2038,229L2139,97Z" fill="#6d93a5" stroke="#6d93a5" stroke-width="1.51"/><path d="M1960,414L2065,488L2139,427Z" fill="#357fb1" stroke="#357fb1" stroke-width="1.51"/><path d="M2038,229L1960,414L2139,427Z" fill="#4686ae" stroke="#4686ae" stroke-width="1.51"/><path d="M2065,488L2036,697L2139,427Z" fill="#2872a9" stroke="#2872a9" stroke-width="1.51"/><path d="M2036,697L2050,801L2139,427Z" fill="#1966a3" stroke="#1966a3" stroke-width="1.51"/><path d="M2139,97L2038,229L2139,427Z" fill="#5889a5" stroke="#5889a5" stroke-width="1.51"/><path d="M1492,783L1175,839L1736,846Z" fill="#2675ad" stroke="#2675ad" stroke-width="1.51"/><path d="M1951,-215L1952,-95L2123,-105Z" fill="#869fb8" stroke="#869fb8" stroke-width="1.51"/><path d="M1944,253L1960,414L2038,229Z" fill="#5190b0" stroke="#5190b0" stroke-width="1.51"/><path d="M1943,484L2036,697L2065,488Z" fill="#2674ad" stroke="#2674ad" stroke-width="1.51"/><path d="M1943,484L1890,700L2036,697Z" fill="#1b70ac" stroke="#1b70ac" stroke-width="1.51"/><path d="M1972,60L1944,253L2038,229Z" fill="#6795aa" stroke="#6795aa" stroke-width="1.51"/><path d="M1960,414L1943,484L2065,488Z" fill="#3382b5" stroke="#3382b5" stroke-width="1.51"/><path d="M2036,697L1924,817L2050,801Z" fill="#0a5b9e" stroke="#0a5b9e" stroke-width="1.51"/><path d="M1890,700L1924,817L2036,697Z" fill="#0b63a6" stroke="#0b63a6" stroke-width="1.51"/><path d="M1228,-253L1494,-210L1678,-261Z" fill="#9ec7d7" stroke="#9ec7d7" stroke-width="1.51"/><path d="M1832,497L1890,700L1943,484Z" fill="#257db6" stroke="#257db6" stroke-width="1.51"/><path d="M1732,-75L1811,117L1952,-95Z" fill="#84a9bc" stroke="#84a9bc" stroke-width="1.51"/><path d="M1944,253L1813,322L1960,414Z" fill="#4d93b6" stroke="#4d93b6" stroke-width="1.51"/><path d="M1952,-95L1811,117L1972,60Z" fill="#7da1b4" stroke="#7da1b4" stroke-width="1.51"/><path d="M1811,117L1944,253L1972,60Z" fill="#6f9daf" stroke="#6f9daf" stroke-width="1.51"/><path d="M1832,497L1766,636L1890,700Z" fill="#1e7ab6" stroke="#1e7ab6" stroke-width="1.51"/><path d="M1951,-215L1766,-241L1952,-95Z" fill="#8da9c5" stroke="#8da9c5" stroke-width="1.51"/><path d="M1766,-241L1732,-75L1952,-95Z" fill="#8badc5" stroke="#8badc5" stroke-width="1.51"/><path d="M1832,497L1943,484L1960,414Z" fill="#3287ba" stroke="#3287ba" stroke-width="1.51"/><path d="M1813,322L1832,497L1960,414Z" fill="#3e8fbd" stroke="#3e8fbd" stroke-width="1.51"/><path d="M1740,190L1813,322L1944,253Z" fill="#5d9cb8" stroke="#5d9cb8" stroke-width="1.51"/><path d="M1811,117L1740,190L1944,253Z" fill="#6aa0b5" stroke="#6aa0b5" stroke-width="1.51"/><path d="M1606,793L1492,783L1736,846Z" fill="#1c6fab" stroke="#1c6fab" stroke-width="1.51"/><path d="M1890,700L1736,846L1924,817Z" fill="#0a63a7" stroke="#0a63a7" stroke-width="1.51"/><path d="M236,-273L461,-228L790,-234Z" fill="#d6efd3" stroke="#d6efd3" stroke-width="1.51"/><path d="M1766,636L1736,846L1890,700Z" fill="#136eb0" stroke="#136eb0" stroke-width="1.51"/><path d="M1732,-75L1633,127L1811,117Z" fill="#7fadbb" stroke="#7fadbb" stroke-width="1.51"/><path d="M1595,548L1766,636L1832,497Z" fill="#2b86bc" stroke="#2b86bc" stroke-width="1.51"/><path d="M1665,355L1595,548L1832,497Z" fill="#3895c4" stroke="#3895c4" stroke-width="1.51"/><path d="M1813,322L1665,355L1832,497Z" fill="#4497bf" stroke="#4497bf" stroke-width="1.51"/><path d="M1606,793L1736,846L1766,636Z" fill="#1670b0" stroke="#1670b0" stroke-width="1.51"/><path d="M1611,661L1606,793L1766,636Z" fill="#1e7ab5" stroke="#1e7ab5" stroke-width="1.51"/><path d="M1740,190L1665,355L1813,322Z" fill="#58a0bc" stroke="#58a0bc" stroke-width="1.51"/><path d="M1633,127L1740,190L1811,117Z" fill="#73a9b6" stroke="#73a9b6" stroke-width="1.51"/><path d="M1589,-34L1633,127L1732,-75Z" fill="#87b4c0" stroke="#87b4c0" stroke-width="1.51"/><path d="M1590,278L1665,355L1740,190Z" fill="#5da6be" stroke="#5da6be" stroke-width="1.51"/><path d="M1595,548L1611,661L1766,636Z" fill="#2684ba" stroke="#2684ba" stroke-width="1.51"/><path d="M1678,-261L1732,-75L1766,-241Z" fill="#92b5cb" stroke="#92b5cb" stroke-width="1.51"/><path d="M833,794L539,867L1175,839Z" fill="#5b8faa" stroke="#5b8faa" stroke-width="1.51"/><path d="M1678,-261L1589,-34L1732,-75Z" fill="#8fb6c8" stroke="#8fb6c8" stroke-width="1.51"/><path d="M1633,127L1590,278L1740,190Z" fill="#6caaba" stroke="#6caaba" stroke-width="1.51"/><path d="M1497,-104L1589,-34L1678,-261Z" fill="#92bccb" stroke="#92bccb" stroke-width="1.51"/><path d="M1320,769L1175,839L1492,783Z" fill="#3081b6" stroke="#3081b6" stroke-width="1.51"/><path d="M1518,423L1595,548L1665,355Z" fill="#3f9ec7" stroke="#3f9ec7" stroke-width="1.51"/><path d="M1494,-210L1497,-104L1678,-261Z" fill="#97bfd0" stroke="#97bfd0" stroke-width="1.51"/><path d="M1589,-34L1491,41L1633,127Z" fill="#84b8c0" stroke="#84b8c0" stroke-width="1.51"/><path d="M1590,278L1518,423L1665,355Z" fill="#51a5c3" stroke="#51a5c3" stroke-width="1.51"/><path d="M1492,783L1606,793L1611,661Z" fill="#1e7ab5" stroke="#1e7ab5" stroke-width="1.51"/><path d="M1501,234L1590,278L1633,127Z" fill="#6bafbd" stroke="#6bafbd" stroke-width="1.51"/><path d="M1491,41L1501,234L1633,127Z" fill="#79b5bc" stroke="#79b5bc" stroke-width="1.51"/><path d="M1595,548L1440,675L1611,661Z" fill="#2a89bd" stroke="#2a89bd" stroke-width="1.51"/><path d="M1440,675L1492,783L1611,661Z" fill="#2682b9" stroke="#2682b9" stroke-width="1.51"/><path d="M1518,423L1443,493L1595,548Z" fill="#3c9dc7" stroke="#3c9dc7" stroke-width="1.51"/><path d="M1501,234L1518,423L1590,278Z" fill="#59acc3" stroke="#59acc3" stroke-width="1.51"/><path d="M1443,493L1440,675L1595,548Z" fill="#3494c3" stroke="#3494c3" stroke-width="1.51"/><path d="M1497,-104L1491,41L1589,-34Z" fill="#8dbdc6" stroke="#8dbdc6" stroke-width="1.51"/><path d="M1052,799L833,794L1175,839Z" fill="#4c8db1" stroke="#4c8db1" stroke-width="1.51"/><path d="M1228,-253L1332,-183L1494,-210Z" fill="#a1ced9" stroke="#a1ced9" stroke-width="1.51"/><path d="M1377,-97L1491,41L1497,-104Z" fill="#92c2ca" stroke="#92c2ca" stroke-width="1.51"/><path d="M1491,41L1386,181L1501,234Z" fill="#7ababe" stroke="#7ababe" stroke-width="1.51"/><path d="M1501,234L1375,401L1518,423Z" fill="#56adc7" stroke="#56adc7" stroke-width="1.51"/><path d="M1375,401L1443,493L1518,423Z" fill="#47a8cc" stroke="#47a8cc" stroke-width="1.51"/><path d="M790,-234L893,-204L1228,-253Z" fill="#b6e2d5" stroke="#b6e2d5" stroke-width="1.51"/><path d="M1348,70L1386,181L1491,41Z" fill="#84c0c3" stroke="#84c0c3" stroke-width="1.51"/><path d="M1377,-97L1348,70L1491,41Z" fill="#90c5c7" stroke="#90c5c7" stroke-width="1.51"/><path d="M1332,-183L1377,-97L1494,-210Z" fill="#9bc9d4" stroke="#9bc9d4" stroke-width="1.51"/><path d="M1494,-210L1377,-97L1497,-104Z" fill="#97c4d0" stroke="#97c4d0" stroke-width="1.51"/><path d="M1386,181L1375,401L1501,234Z" fill="#66b6c5" stroke="#66b6c5" stroke-width="1.51"/><path d="M1335,659L1440,675L1443,493Z" fill="#3595c3" stroke="#3595c3" stroke-width="1.51"/><path d="M1440,675L1320,769L1492,783Z" fill="#2a84bb" stroke="#2a84bb" stroke-width="1.51"/><path d="M1218,226L1375,401L1386,181Z" fill="#6abcc8" stroke="#6abcc8" stroke-width="1.51"/><path d="M1335,659L1320,769L1440,675Z" fill="#318cbf" stroke="#318cbf" stroke-width="1.51"/><path d="M1375,401L1334,496L1443,493Z" fill="#46a9cd" stroke="#46a9cd" stroke-width="1.51"/><path d="M1334,496L1335,659L1443,493Z" fill="#3d9ec8" stroke="#3d9ec8" stroke-width="1.51"/><path d="M1334,496L1208,561L1335,659Z" fill="#40a1c9" stroke="#40a1c9" stroke-width="1.51"/><path d="M1136,-69L1141,34L1348,70Z" fill="#98d0cb" stroke="#98d0cb" stroke-width="1.51"/><path d="M1218,226L1153,334L1375,401Z" fill="#65becc" stroke="#65becc" stroke-width="1.51"/><path d="M1136,-69L1348,70L1377,-97Z" fill="#97cdce" stroke="#97cdce" stroke-width="1.51"/><path d="M1348,70L1218,226L1386,181Z" fill="#7fc3c3" stroke="#7fc3c3" stroke-width="1.51"/><path d="M1332,-183L1136,-69L1377,-97Z" fill="#9dd0d4" stroke="#9dd0d4" stroke-width="1.51"/><path d="M1153,334L1334,496L1375,401Z" fill="#54b4d0" stroke="#54b4d0" stroke-width="1.51"/><path d="M1153,334L1208,561L1334,496Z" fill="#4fb2d2" stroke="#4fb2d2" stroke-width="1.51"/><path d="M1141,34L1218,226L1348,70Z" fill="#8acbc6" stroke="#8acbc6" stroke-width="1.51"/><path d="M1228,-253L1136,-69L1332,-183Z" fill="#a3d4d8" stroke="#a3d4d8" stroke-width="1.51"/><path d="M1167,628L1320,769L1335,659Z" fill="#3893c3" stroke="#3893c3" stroke-width="1.51"/><path d="M1208,561L1167,628L1335,659Z" fill="#409ec7" stroke="#409ec7" stroke-width="1.51"/><path d="M893,-204L985,-177L1228,-253Z" fill="#b1ded6" stroke="#b1ded6" stroke-width="1.51"/><path d="M1167,628L1175,839L1320,769Z" fill="#3a8fbf" stroke="#3a8fbf" stroke-width="1.51"/><path d="M1043,68L1059,238L1141,34Z" fill="#91d1c2" stroke="#91d1c2" stroke-width="1.51"/><path d="M1167,628L1082,666L1175,839Z" fill="#4596bf" stroke="#4596bf" stroke-width="1.51"/><path d="M1082,666L1052,799L1175,839Z" fill="#4690b9" stroke="#4690b9" stroke-width="1.51"/><path d="M1153,334L1077,472L1208,561Z" fill="#58b6d0" stroke="#58b6d0" stroke-width="1.51"/><path d="M1141,34L1059,238L1218,226Z" fill="#87ccc2" stroke="#87ccc2" stroke-width="1.51"/><path d="M985,-177L1136,-69L1228,-253Z" fill="#a9d9d5" stroke="#a9d9d5" stroke-width="1.51"/><path d="M1059,238L1153,334L1218,226Z" fill="#75c6c7" stroke="#75c6c7" stroke-width="1.51"/><path d="M1077,472L1167,628L1208,561Z" fill="#4eaac9" stroke="#4eaac9" stroke-width="1.51"/><path d="M1077,472L1082,666L1167,628Z" fill="#4ea7c6" stroke="#4ea7c6" stroke-width="1.51"/><path d="M1018,329L1077,472L1153,334Z" fill="#69c0cb" stroke="#69c0cb" stroke-width="1.51"/><path d="M1136,-69L1043,68L1141,34Z" fill="#9dd5c8" stroke="#9dd5c8" stroke-width="1.51"/><path d="M1059,238L1018,329L1153,334Z" fill="#74c7c7" stroke="#74c7c7" stroke-width="1.51"/><path d="M982,-47L1043,68L1136,-69Z" fill="#a2d8c8" stroke="#a2d8c8" stroke-width="1.51"/><path d="M985,-177L982,-47L1136,-69Z" fill="#a9dbce" stroke="#a9dbce" stroke-width="1.51"/><path d="M1043,68L897,182L1059,238Z" fill="#8fd2be" stroke="#8fd2be" stroke-width="1.51"/><path d="M1018,329L859,409L1077,472Z" fill="#6cc2ca" stroke="#6cc2ca" stroke-width="1.51"/><path d="M856,636L1052,799L1082,666Z" fill="#539dbc" stroke="#539dbc" stroke-width="1.51"/><path d="M1077,472L869,518L1082,666Z" fill="#5bb0c6" stroke="#5bb0c6" stroke-width="1.51"/><path d="M869,518L856,636L1082,666Z" fill="#5cabc0" stroke="#5cabc0" stroke-width="1.51"/><path d="M859,409L869,518L1077,472Z" fill="#68beca" stroke="#68beca" stroke-width="1.51"/><path d="M718,785L539,867L833,794Z" fill="#6995a9" stroke="#6995a9" stroke-width="1.51"/><path d="M909,65L897,182L1043,68Z" fill="#9ad7bf" stroke="#9ad7bf" stroke-width="1.51"/><path d="M856,636L833,794L1052,799Z" fill="#589bb8" stroke="#589bb8" stroke-width="1.51"/><path d="M897,182L1018,329L1059,238Z" fill="#81cdc3" stroke="#81cdc3" stroke-width="1.51"/><path d="M982,-47L909,65L1043,68Z" fill="#a1d9c4" stroke="#a1d9c4" stroke-width="1.51"/><path d="M934,-48L909,65L982,-47Z" fill="#a8dcc5" stroke="#a8dcc5" stroke-width="1.51"/><path d="M934,-48L982,-47L985,-177Z" fill="#abddcb" stroke="#abddcb" stroke-width="1.51"/><path d="M897,182L859,409L1018,329Z" fill="#7dccc4" stroke="#7dccc4" stroke-width="1.51"/><path d="M788,229L859,409L897,182Z" fill="#89d0c0" stroke="#89d0c0" stroke-width="1.51"/><path d="M893,-204L934,-48L985,-177Z" fill="#b1e0ce" stroke="#b1e0ce" stroke-width="1.51"/><path d="M-192,-202L-13,-231L114,-268Z" fill="#eaf7e4" stroke="#eaf7e4" stroke-width="1.51"/><path d="M893,-204L712,-118L934,-48Z" fill="#b6e2ca" stroke="#b6e2ca" stroke-width="1.51"/><path d="M768,55L909,65L934,-48Z" fill="#a9ddc1" stroke="#a9ddc1" stroke-width="1.51"/><path d="M712,-118L768,55L934,-48Z" fill="#b3e1c3" stroke="#b3e1c3" stroke-width="1.51"/><path d="M790,-234L712,-118L893,-204Z" fill="#bee5ce" stroke="#bee5ce" stroke-width="1.51"/><path d="M768,55L897,182L909,65Z" fill="#a1dabd" stroke="#a1dabd" stroke-width="1.51"/><path d="M768,55L788,229L897,182Z" fill="#9dd8ba" stroke="#9dd8ba" stroke-width="1.51"/><path d="M788,229L697,361L859,409Z" fill="#86cec1" stroke="#86cec1" stroke-width="1.51"/><path d="M422,833L115,868L539,867Z" fill="#7c96aa" stroke="#7c96aa" stroke-width="1.51"/><path d="M684,715L718,785L833,794Z" fill="#679cb2" stroke="#679cb2" stroke-width="1.51"/><path d="M684,715L833,794L856,636Z" fill="#66a1b7" stroke="#66a1b7" stroke-width="1.51"/><path d="M859,409L740,564L869,518Z" fill="#71bdc5" stroke="#71bdc5" stroke-width="1.51"/><path d="M740,564L856,636L869,518Z" fill="#6ab3c0" stroke="#6ab3c0" stroke-width="1.51"/><path d="M697,361L740,564L859,409Z" fill="#7ac5c6" stroke="#7ac5c6" stroke-width="1.51"/><path d="M740,564L684,715L856,636Z" fill="#6cacba" stroke="#6cacba" stroke-width="1.51"/><path d="M461,-228L531,-181L790,-234Z" fill="#cdecce" stroke="#cdecce" stroke-width="1.51"/><path d="M768,55L567,177L788,229Z" fill="#a5dbb6" stroke="#a5dbb6" stroke-width="1.51"/><path d="M531,-181L712,-118L790,-234Z" fill="#c5e9ca" stroke="#c5e9ca" stroke-width="1.51"/><path d="M567,177L697,361L788,229Z" fill="#98d6bb" stroke="#98d6bb" stroke-width="1.51"/><path d="M613,630L684,715L740,564Z" fill="#73aeb9" stroke="#73aeb9" stroke-width="1.51"/><path d="M697,361L625,579L740,564Z" fill="#7cbfc2" stroke="#7cbfc2" stroke-width="1.51"/><path d="M712,-118L548,82L768,55Z" fill="#b9e3bd" stroke="#b9e3bd" stroke-width="1.51"/><path d="M548,82L567,177L768,55Z" fill="#b0e0b8" stroke="#b0e0b8" stroke-width="1.51"/><path d="M550,377L625,579L697,361Z" fill="#86cac5" stroke="#86cac5" stroke-width="1.51"/><path d="M531,-181L566,-128L712,-118Z" fill="#c7eac9" stroke="#c7eac9" stroke-width="1.51"/><path d="M566,-128L548,82L712,-118Z" fill="#c1e7c2" stroke="#c1e7c2" stroke-width="1.51"/><path d="M625,579L613,630L740,564Z" fill="#77b4bb" stroke="#77b4bb" stroke-width="1.51"/><path d="M567,177L550,377L697,361Z" fill="#96d5bf" stroke="#96d5bf" stroke-width="1.51"/><path d="M684,715L539,867L718,785Z" fill="#6e9bad" stroke="#6e9bad" stroke-width="1.51"/><path d="M613,630L489,685L684,715Z" fill="#77abb8" stroke="#77abb8" stroke-width="1.51"/><path d="M489,685L539,867L684,715Z" fill="#74a1b3" stroke="#74a1b3" stroke-width="1.51"/><path d="M463,-22L548,82L566,-128Z" fill="#c4e8c2" stroke="#c4e8c2" stroke-width="1.51"/><path d="M417,262L550,377L567,177Z" fill="#a0d9bf" stroke="#a0d9bf" stroke-width="1.51"/><path d="M550,377L408,471L625,579Z" fill="#89c7c6" stroke="#89c7c6" stroke-width="1.51"/><path d="M489,685L613,630L625,579Z" fill="#7ab1bb" stroke="#7ab1bb" stroke-width="1.51"/><path d="M408,471L489,685L625,579Z" fill="#82bac0" stroke="#82bac0" stroke-width="1.51"/><path d="M489,685L422,833L539,867Z" fill="#789db0" stroke="#789db0" stroke-width="1.51"/><path d="M463,-22L488,74L548,82Z" fill="#bee6bf" stroke="#bee6bf" stroke-width="1.51"/><path d="M531,-181L463,-22L566,-128Z" fill="#caebc8" stroke="#caebc8" stroke-width="1.51"/><path d="M548,82L488,74L567,177Z" fill="#b4e2ba" stroke="#b4e2ba" stroke-width="1.51"/><path d="M488,74L417,262L567,177Z" fill="#afe0ba" stroke="#afe0ba" stroke-width="1.51"/><path d="M417,262L385,405L550,377Z" fill="#9bd5c5" stroke="#9bd5c5" stroke-width="1.51"/><path d="M385,405L408,471L550,377Z" fill="#95cfc8" stroke="#95cfc8" stroke-width="1.51"/><path d="M461,-228L463,-22L531,-181Z" fill="#ceeccc" stroke="#ceeccc" stroke-width="1.51"/><path d="M408,471L332,675L489,685Z" fill="#86b7c1" stroke="#86b7c1" stroke-width="1.51"/><path d="M461,-228L253,-83L463,-22Z" fill="#d2eecc" stroke="#d2eecc" stroke-width="1.51"/><path d="M463,-22L286,115L488,74Z" fill="#c3e8c0" stroke="#c3e8c0" stroke-width="1.51"/><path d="M286,115L417,262L488,74Z" fill="#b8e3bc" stroke="#b8e3bc" stroke-width="1.51"/><path d="M332,785L422,833L489,685Z" fill="#7ea2b6" stroke="#7ea2b6" stroke-width="1.51"/><path d="M332,675L332,785L489,685Z" fill="#82aabb" stroke="#82aabb" stroke-width="1.51"/><path d="M332,785L115,868L422,833Z" fill="#809cb1" stroke="#809cb1" stroke-width="1.51"/><path d="M335,372L385,405L417,262Z" fill="#a0d7c7" stroke="#a0d7c7" stroke-width="1.51"/><path d="M286,115L271,215L417,262Z" fill="#b5e2c1" stroke="#b5e2c1" stroke-width="1.51"/><path d="M236,-273L253,-83L461,-228Z" fill="#dbf1d4" stroke="#dbf1d4" stroke-width="1.51"/><path d="M253,-83L286,115L463,-22Z" fill="#cdecc6" stroke="#cdecc6" stroke-width="1.51"/><path d="M230,514L332,675L408,471Z" fill="#8fc1c7" stroke="#8fc1c7" stroke-width="1.51"/><path d="M271,215L335,372L417,262Z" fill="#a9ddc4" stroke="#a9ddc4" stroke-width="1.51"/><path d="M385,405L230,514L408,471Z" fill="#96cdcc" stroke="#96cdcc" stroke-width="1.51"/><path d="M335,372L230,514L385,405Z" fill="#9ad1cd" stroke="#9ad1cd" stroke-width="1.51"/><path d="M230,514L119,576L332,675Z" fill="#8fbec8" stroke="#8fbec8" stroke-width="1.51"/><path d="M119,576L125,722L332,675Z" fill="#8cb4c5" stroke="#8cb4c5" stroke-width="1.51"/><path d="M125,722L332,785L332,675Z" fill="#86abbf" stroke="#86abbf" stroke-width="1.51"/><path d="M271,215L129,338L335,372Z" fill="#a9dcc9" stroke="#a9dcc9" stroke-width="1.51"/><path d="M129,338L230,514L335,372Z" fill="#9fd4cf" stroke="#9fd4cf" stroke-width="1.51"/><path d="M253,-83L142,-56L286,115Z" fill="#d1edca" stroke="#d1edca" stroke-width="1.51"/><path d="M125,722L115,868L332,785Z" fill="#85a3ba" stroke="#85a3ba" stroke-width="1.51"/><path d="M-28,824L-220,849L115,868Z" fill="#899db9" stroke="#899db9" stroke-width="1.51"/><path d="M236,-273L114,-268L253,-83Z" fill="#e0f3da" stroke="#e0f3da" stroke-width="1.51"/><path d="M114,-268L142,-56L253,-83Z" fill="#dcf1d6" stroke="#dcf1d6" stroke-width="1.51"/><path d="M167,190L129,338L271,215Z" fill="#b3e1c8" stroke="#b3e1c8" stroke-width="1.51"/><path d="M142,-56L133,105L286,115Z" fill="#ccebc8" stroke="#ccebc8" stroke-width="1.51"/><path d="M167,190L271,215L286,115Z" fill="#bbe4c2" stroke="#bbe4c2" stroke-width="1.51"/><path d="M133,105L167,190L286,115Z" fill="#c1e7c3" stroke="#c1e7c3" stroke-width="1.51"/><path d="M129,338L119,576L230,514Z" fill="#9bcdd2" stroke="#9bcdd2" stroke-width="1.51"/><path d="M119,576L6,657L125,722Z" fill="#90b6c9" stroke="#90b6c9" stroke-width="1.51"/><path d="M12,547L119,576L129,338Z" fill="#9ccdd4" stroke="#9ccdd4" stroke-width="1.51"/><path d="M-33,346L12,547L129,338Z" fill="#a5d7d6" stroke="#a5d7d6" stroke-width="1.51"/><path d="M35,-44L18,99L133,105Z" fill="#d0edcd" stroke="#d0edcd" stroke-width="1.51"/><path d="M114,-268L-13,-231L142,-56Z" fill="#e2f4dc" stroke="#e2f4dc" stroke-width="1.51"/><path d="M-13,-231L35,-44L142,-56Z" fill="#def2d8" stroke="#def2d8" stroke-width="1.51"/><path d="M35,-44L133,105L142,-56Z" fill="#d5efce" stroke="#d5efce" stroke-width="1.51"/><path d="M133,105L-10,172L167,190Z" fill="#c2e7c7" stroke="#c2e7c7" stroke-width="1.51"/><path d="M-10,172L129,338L167,190Z" fill="#b8e3ca" stroke="#b8e3ca" stroke-width="1.51"/><path d="M-28,824L115,868L125,722Z" fill="#87a2bc" stroke="#87a2bc" stroke-width="1.51"/><path d="M-10,172L-33,346L129,338Z" fill="#b3e1d0" stroke="#b3e1d0" stroke-width="1.51"/><path d="M18,99L-10,172L133,105Z" fill="#c8e9ca" stroke="#c8e9ca" stroke-width="1.51"/><path d="M6,657L-28,824L125,722Z" fill="#8dadc6" stroke="#8dadc6" stroke-width="1.51"/><path d="M12,547L6,657L119,576Z" fill="#95bfce" stroke="#95bfce" stroke-width="1.51"/><path d="M-142,661L-28,824L6,657Z" fill="#91b0ca" stroke="#91b0ca" stroke-width="1.51"/><path d="M-33,346L-202,478L12,547Z" fill="#a5d3db" stroke="#a5d3db" stroke-width="1.51"/><path d="M-13,-231L-209,-102L35,-44Z" fill="#e3f5dd" stroke="#e3f5dd" stroke-width="1.51"/><path d="M-209,-102L-124,82L35,-44Z" fill="#def2d7" stroke="#def2d7" stroke-width="1.51"/><path d="M-124,82L18,99L35,-44Z" fill="#d4efd0" stroke="#d4efd0" stroke-width="1.51"/><path d="M-173,366L-202,478L-33,346Z" fill="#aedadc" stroke="#aedadc" stroke-width="1.51"/><path d="M-192,-202L-209,-102L-13,-231Z" fill="#eaf7e4" stroke="#eaf7e4" stroke-width="1.51"/><path d="M-196,255L-33,346L-10,172Z" fill="#bbe4d2" stroke="#bbe4d2" stroke-width="1.51"/><path d="M-142,661L6,657L12,547Z" fill="#96bdcf" stroke="#96bdcf" stroke-width="1.51"/><path d="M-124,82L-10,172L18,99Z" fill="#ccebcd" stroke="#ccebcd" stroke-width="1.51"/><path d="M-202,478L-142,661L12,547Z" fill="#9dc6d5" stroke="#9dc6d5" stroke-width="1.51"/><path d="M-124,82L-196,255L-10,172Z" fill="#c8eacf" stroke="#c8eacf" stroke-width="1.51"/><path d="M-196,255L-173,366L-33,346Z" fill="#b5e1d7" stroke="#b5e1d7" stroke-width="1.51"/><path d="M-142,661L-220,849L-28,824Z" fill="#91a9c7" stroke="#91a9c7" stroke-width="1.51"/><path d="M-209,-102L-196,255L-124,82Z" fill="#d6efd4" stroke="#d6efd4" stroke-width="1.51"/><path d="M-202,478L-220,849L-142,661Z" fill="#99b9d1" stroke="#99b9d1" stroke-width="1.51"/><path d="M-196,255L-202,478L-173,366Z" fill="#b3dedc" stroke="#b3dedc" stroke-width="1.51"/><path d="M-209,-102L-202,478L-196,255Z" fill="#c6e9d4" stroke="#c6e9d4" stroke-width="1.51"/><path d="M-209,-102L-220,849L-202,478Z" fill="#afdadf" stroke="#afdadf" stroke-width="1.51"/></svg>