<svg xmlns="http://www.w3.org/2000/svg" width="1920" height="1080"><path d="M76,-198L221,-186L449,-186Z" fill="#e7f5c1" stroke="#e7f5c1" stroke-width="1.51"/><path d="M756,1250L608,1282L1175,1259Z" fill="#3f6d94" stroke="#3f6d94" stroke-width="1.51"/><path d="M76,-198L449,-186L1214,-189Z" fill="#c8e8c5" stroke="#c8e8c5" stroke-width="1.51"/><path d="M449,-186L887,-139L1214,-189Z" fill="#b2ddc7" stroke="#b2ddc7" stroke-width="1.51"/><path d="M1175,1259L608,1282L1521,1253Z" fill="#2a6194" stroke="#2a6194" stroke-width="1.51"/><path d="M76,-198L1214,-189L1637,-203Z" fill="#abd9cb" stroke="#abd9cb" stroke-width="1.51"/><path d="M1637,-203L1793,-114L1993,-137Z" fill="#9b98b3" stroke="#9b98b3" stroke-width="1.51"/><path d="M1648,1248L1521,1253L1999,1243Z" fill="#1c3885" stroke="#1c3885" stroke-width="1.51"/><path d="M1848,1236L1648,1248L1999,1243Z" fill="#1d3083" stroke="#1d3083" stroke-width="1.51"/><path d="M1637,-203L1993,-137L2106,-187Z" fill="#9a91b1" stroke="#9a91b1" stroke-width="1.51"/><path d="M2114,470L2111,638L2139,734Z" fill="#2c6394" stroke="#2c6394" stroke-width="1.51"/><path d="M1951,1072L1999,1243L2142,1221Z" fill="#1b2b7d" stroke="#1b2b7d" stroke-width="1.51"/><path d="M2139,734L1998,754L2143,948Z" fill="#1f4f90" stroke="#1f4f90" stroke-width="1.51"/><path d="M1998,754L1965,900L2143,948Z" fill="#214b93" stroke="#214b93" stroke-width="1.51"/><path d="M2106,-187L1993,-137L2149,-26Z" fill="#8d8899" stroke="#8d8899" stroke-width="1.51"/><path d="M2149,-26L1983,116L2158,158Z" fill="#7d8291" stroke="#7d8291" stroke-width="1.51"/><path d="M1983,116L2000,273L2158,158Z" fill="#758097" stroke="#758097" stroke-width="1.51"/><path d="M2143,948L1951,1072L2158,1042Z" fill="#1d3786" stroke="#1d3786" stroke-width="1.51"/><path d="M1951,1072L2142,1221L2158,1042Z" fill="#1c2d81" stroke="#1c2d81" stroke-width="1.51"/><path d="M2139,734L2143,948L2158,1042Z" fill="#1a4185" stroke="#1a4185" stroke-width="1.51"/><path d="M2158,158L2000,273L2159,281Z" fill="#677a91" stroke="#677a91" stroke-width="1.51"/><path d="M2000,273L2114,470L2159,281Z" fill="#537594" stroke="#537594" stroke-width="1.51"/><path d="M2114,470L2139,734L2159,281Z" fill="#396b92" stroke="#396b92" stroke-width="1.51"/><path d="M2139,734L2158,1042L2159,281Z" fill="#235a90" stroke="#235a90" stroke-width="1.51"/><path d="M1948,-40L1983,116L2149,-26Z" fill="#888898" stroke="#888898" stroke-width="1.51"/><path d="M2000,273L1923,421L2114,470Z" fill="#51769d" stroke="#51769d" stroke-width="1.51"/><path d="M1981,648L2111,638L2114,470Z" fill="#31679a" stroke="#31679a" stroke-width="1.51"/><path d="M1965,900L1951,1072L2143,948Z" fill="#203f8e" stroke="#203f8e" stroke-width="1.51"/><path d="M1993,-137L1948,-40L2149,-26Z" fill="#8f899a" stroke="#8f899a" stroke-width="1.51"/><path d="M2111,638L1998,754L2139,734Z" fill="#245c97" stroke="#245c97" stroke-width="1.51"/><path d="M1981,648L1998,754L2111,638Z" fill="#2a609c" stroke="#2a609c" stroke-width="1.51"/><path d="M1923,421L1981,648L2114,470Z" fill="#3d6fa0" stroke="#3d6fa0" stroke-width="1.51"/><path d="M1214,-189L1319,-166L1513,-170Z" fill="#a1bec5" stroke="#a1bec5" stroke-width="1.51"/><path d="M1214,-189L1513,-170L1637,-203Z" fill="#9fb4c2" stroke="#9fb4c2" stroke-width="1.51"/><path d="M1817,508L1833,573L1923,421Z" fill="#4678ad" stroke="#4678ad" stroke-width="1.51"/><path d="M1923,421L1833,573L1981,648Z" fill="#3d72aa" stroke="#3d72aa" stroke-width="1.51"/><path d="M1948,-40L1832,-26L1983,116Z" fill="#8f8da3" stroke="#8f8da3" stroke-width="1.51"/><path d="M1981,648L1795,750L1998,754Z" fill="#2c62a7" stroke="#2c62a7" stroke-width="1.51"/><path d="M1795,750L1965,900L1998,754Z" fill="#2858a3" stroke="#2858a3" stroke-width="1.51"/><path d="M1951,1072L1848,1236L1999,1243Z" fill="#1e2e85" stroke="#1e2e85" stroke-width="1.51"/><path d="M1804,265L1923,421L2000,273Z" fill="#627fa6" stroke="#627fa6" stroke-width="1.51"/><path d="M1983,116L1820,163L2000,273Z" fill="#7b86a2" stroke="#7b86a2" stroke-width="1.51"/><path d="M1820,163L1804,265L2000,273Z" fill="#7486a8" stroke="#7486a8" stroke-width="1.51"/><path d="M1778,921L1951,1072L1965,900Z" fill="#25459b" stroke="#25459b" stroke-width="1.51"/><path d="M1793,-114L1948,-40L1993,-137Z" fill="#9790a9" stroke="#9790a9" stroke-width="1.51"/><path d="M1778,921L1790,1062L1951,1072Z" fill="#26439b" stroke="#26439b" stroke-width="1.51"/><path d="M1833,573L1795,750L1981,648Z" fill="#336aac" stroke="#336aac" stroke-width="1.51"/><path d="M1832,-26L1820,163L1983,116Z" fill="#8b8da7" stroke="#8b8da7" stroke-width="1.51"/><path d="M1056,1239L756,1250L1175,1259Z" fill="#316897" stroke="#316897" stroke-width="1.51"/><path d="M1793,-114L1832,-26L1948,-40Z" fill="#9892a9" stroke="#9892a9" stroke-width="1.51"/><path d="M1790,1062L1848,1236L1951,1072Z" fill="#253694" stroke="#253694" stroke-width="1.51"/><path d="M1795,750L1778,921L1965,900Z" fill="#2855a4" stroke="#2855a4" stroke-width="1.51"/><path d="M1804,265L1817,508L1923,421Z" fill="#567eac" stroke="#567eac" stroke-width="1.51"/><path d="M1804,265L1647,346L1817,508Z" fill="#5986ae" stroke="#5986ae" stroke-width="1.51"/><path d="M1647,346L1624,475L1817,508Z" fill="#4d86b1" stroke="#4d86b1" stroke-width="1.51"/><path d="M1703,42L1820,163L1832,-26Z" fill="#8d94aa" stroke="#8d94aa" stroke-width="1.51"/><path d="M1617,616L1795,750L1833,573Z" fill="#3273b0" stroke="#3273b0" stroke-width="1.51"/><path d="M1790,1062L1648,1248L1848,1236Z" fill="#21398e" stroke="#21398e" stroke-width="1.51"/><path d="M1660,1063L1648,1248L1790,1062Z" fill="#26419a" stroke="#26419a" stroke-width="1.51"/><path d="M1700,200L1804,265L1820,163Z" fill="#798fab" stroke="#798fab" stroke-width="1.51"/><path d="M1817,508L1617,616L1833,573Z" fill="#3a7ab1" stroke="#3a7ab1" stroke-width="1.51"/><path d="M1793,-114L1703,42L1832,-26Z" fill="#9698a9" stroke="#9698a9" stroke-width="1.51"/><path d="M449,-186L580,-152L887,-139Z" fill="#c0e5c2" stroke="#c0e5c2" stroke-width="1.51"/><path d="M1351,1223L1175,1259L1521,1253Z" fill="#205393" stroke="#205393" stroke-width="1.51"/><path d="M1623,731L1778,921L1795,750Z" fill="#2864ab" stroke="#2864ab" stroke-width="1.51"/><path d="M1617,616L1623,731L1795,750Z" fill="#2b74b2" stroke="#2b74b2" stroke-width="1.51"/><path d="M1624,475L1617,616L1817,508Z" fill="#3c82b3" stroke="#3c82b3" stroke-width="1.51"/><path d="M1703,42L1700,200L1820,163Z" fill="#8695ab" stroke="#8695ab" stroke-width="1.51"/><path d="M1778,921L1660,1063L1790,1062Z" fill="#264a9f" stroke="#264a9f" stroke-width="1.51"/><path d="M1633,945L1660,1063L1778,921Z" fill="#2552a2" stroke="#2552a2" stroke-width="1.51"/><path d="M1623,731L1633,945L1778,921Z" fill="#255fa9" stroke="#255fa9" stroke-width="1.51"/><path d="M1700,200L1647,346L1804,265Z" fill="#6d8fad" stroke="#6d8fad" stroke-width="1.51"/><path d="M1637,-203L1703,42L1793,-114Z" fill="#9a9eb0" stroke="#9a9eb0" stroke-width="1.51"/><path d="M1623,731L1516,766L1633,945Z" fill="#246caf" stroke="#246caf" stroke-width="1.51"/><path d="M1513,-170L1530,-5L1637,-203Z" fill="#9baab9" stroke="#9baab9" stroke-width="1.51"/><path d="M1487,174L1647,346L1700,200Z" fill="#7398b0" stroke="#7398b0" stroke-width="1.51"/><path d="M1487,174L1700,200L1703,42Z" fill="#859daf" stroke="#859daf" stroke-width="1.51"/><path d="M1530,-5L1487,174L1703,42Z" fill="#8da3b0" stroke="#8da3b0" stroke-width="1.51"/><path d="M1637,-203L1530,-5L1703,42Z" fill="#99a4af" stroke="#99a4af" stroke-width="1.51"/><path d="M1516,766L1462,919L1633,945Z" fill="#2368ad" stroke="#2368ad" stroke-width="1.51"/><path d="M1487,174L1478,317L1647,346Z" fill="#6a9cb3" stroke="#6a9cb3" stroke-width="1.51"/><path d="M1633,945L1511,1045L1660,1063Z" fill="#2553a3" stroke="#2553a3" stroke-width="1.51"/><path d="M1521,1253L1648,1248L1660,1063Z" fill="#214392" stroke="#214392" stroke-width="1.51"/><path d="M1511,1045L1521,1253L1660,1063Z" fill="#264b9f" stroke="#264b9f" stroke-width="1.51"/><path d="M1617,616L1525,625L1623,731Z" fill="#2c7db5" stroke="#2c7db5" stroke-width="1.51"/><path d="M1525,625L1617,616L1624,475Z" fill="#3586b5" stroke="#3586b5" stroke-width="1.51"/><path d="M1455,440L1624,475L1647,346Z" fill="#4f90b4" stroke="#4f90b4" stroke-width="1.51"/><path d="M1478,317L1455,440L1647,346Z" fill="#5897b5" stroke="#5897b5" stroke-width="1.51"/><path d="M1455,440L1525,625L1624,475Z" fill="#3d8eb8" stroke="#3d8eb8" stroke-width="1.51"/><path d="M1462,919L1511,1045L1633,945Z" fill="#245da8" stroke="#245da8" stroke-width="1.51"/><path d="M1525,625L1516,766L1623,731Z" fill="#267cb6" stroke="#267cb6" stroke-width="1.51"/><path d="M859,1231L756,1250L1056,1239Z" fill="#3c6d98" stroke="#3c6d98" stroke-width="1.51"/><path d="M1391,289L1478,317L1487,174Z" fill="#6fa4b6" stroke="#6fa4b6" stroke-width="1.51"/><path d="M1327,1088L1351,1223L1511,1045Z" fill="#2a58a5" stroke="#2a58a5" stroke-width="1.51"/><path d="M1319,-166L1319,-9L1513,-170Z" fill="#9ebabd" stroke="#9ebabd" stroke-width="1.51"/><path d="M1330,818L1462,919L1516,766Z" fill="#2375b3" stroke="#2375b3" stroke-width="1.51"/><path d="M1511,1045L1351,1223L1521,1253Z" fill="#244f9a" stroke="#244f9a" stroke-width="1.51"/><path d="M1371,610L1516,766L1525,625Z" fill="#2a87b9" stroke="#2a87b9" stroke-width="1.51"/><path d="M1455,440L1371,610L1525,625Z" fill="#3592bb" stroke="#3592bb" stroke-width="1.51"/><path d="M1352,108L1487,174L1530,-5Z" fill="#8cadb4" stroke="#8cadb4" stroke-width="1.51"/><path d="M1319,-9L1352,108L1530,-5Z" fill="#93b4b6" stroke="#93b4b6" stroke-width="1.51"/><path d="M1513,-170L1319,-9L1530,-5Z" fill="#9bb2b6" stroke="#9bb2b6" stroke-width="1.51"/><path d="M1371,610L1330,818L1516,766Z" fill="#2185bb" stroke="#2185bb" stroke-width="1.51"/><path d="M1462,919L1327,1088L1511,1045Z" fill="#2760a9" stroke="#2760a9" stroke-width="1.51"/><path d="M1332,464L1371,610L1455,440Z" fill="#3e9bbd" stroke="#3e9bbd" stroke-width="1.51"/><path d="M1313,930L1327,1088L1462,919Z" fill="#266aae" stroke="#266aae" stroke-width="1.51"/><path d="M1391,289L1455,440L1478,317Z" fill="#5aa0b8" stroke="#5aa0b8" stroke-width="1.51"/><path d="M1352,108L1391,289L1487,174Z" fill="#7eadb6" stroke="#7eadb6" stroke-width="1.51"/><path d="M580,-152L767,-128L887,-139Z" fill="#b7e1c2" stroke="#b7e1c2" stroke-width="1.51"/><path d="M1391,289L1332,464L1455,440Z" fill="#53a1bb" stroke="#53a1bb" stroke-width="1.51"/><path d="M1330,818L1313,930L1462,919Z" fill="#2374b3" stroke="#2374b3" stroke-width="1.51"/><path d="M1210,662L1330,818L1371,610Z" fill="#2391bf" stroke="#2391bf" stroke-width="1.51"/><path d="M1352,108L1170,168L1391,289Z" fill="#7fb6ba" stroke="#7fb6ba" stroke-width="1.51"/><path d="M1170,168L1234,347L1391,289Z" fill="#6eb4bd" stroke="#6eb4bd" stroke-width="1.51"/><path d="M1234,347L1332,464L1391,289Z" fill="#58a9bd" stroke="#58a9bd" stroke-width="1.51"/><path d="M887,-139L1069,-130L1214,-189Z" fill="#a7d2c6" stroke="#a7d2c6" stroke-width="1.51"/><path d="M1332,464L1210,662L1371,610Z" fill="#309cc0" stroke="#309cc0" stroke-width="1.51"/><path d="M1319,-166L1214,-189L1319,-9Z" fill="#a0c3c2" stroke="#a0c3c2" stroke-width="1.51"/><path d="M1145,1118L1175,1259L1327,1088Z" fill="#2d63a5" stroke="#2d63a5" stroke-width="1.51"/><path d="M1210,662L1161,794L1330,818Z" fill="#218fbf" stroke="#218fbf" stroke-width="1.51"/><path d="M1234,347L1216,419L1332,464Z" fill="#50abbf" stroke="#50abbf" stroke-width="1.51"/><path d="M1216,419L1210,662L1332,464Z" fill="#3aa6c2" stroke="#3aa6c2" stroke-width="1.51"/><path d="M1327,1088L1175,1259L1351,1223Z" fill="#265c9e" stroke="#265c9e" stroke-width="1.51"/><path d="M1319,-9L1213,24L1352,108Z" fill="#93beba" stroke="#93beba" stroke-width="1.51"/><path d="M1213,24L1170,168L1352,108Z" fill="#8ebfbb" stroke="#8ebfbb" stroke-width="1.51"/><path d="M1201,890L1145,1118L1313,930Z" fill="#2a75b2" stroke="#2a75b2" stroke-width="1.51"/><path d="M1214,-189L1213,24L1319,-9Z" fill="#9ec4bc" stroke="#9ec4bc" stroke-width="1.51"/><path d="M1313,930L1145,1118L1327,1088Z" fill="#2a6bae" stroke="#2a6bae" stroke-width="1.51"/><path d="M1201,890L1313,930L1330,818Z" fill="#227cb7" stroke="#227cb7" stroke-width="1.51"/><path d="M1161,794L1201,890L1330,818Z" fill="#2586bb" stroke="#2586bb" stroke-width="1.51"/><path d="M1011,1094L1145,1118L1201,890Z" fill="#3374b0" stroke="#3374b0" stroke-width="1.51"/><path d="M999,882L1011,1094L1201,890Z" fill="#3380b4" stroke="#3380b4" stroke-width="1.51"/><path d="M1069,-130L1213,24L1214,-189Z" fill="#a2cac0" stroke="#a2cac0" stroke-width="1.51"/><path d="M992,471L1060,615L1216,419Z" fill="#44b0c2" stroke="#44b0c2" stroke-width="1.51"/><path d="M1060,615L1210,662L1216,419Z" fill="#36a7c3" stroke="#36a7c3" stroke-width="1.51"/><path d="M1049,343L1216,419L1234,347Z" fill="#5ab3bf" stroke="#5ab3bf" stroke-width="1.51"/><path d="M1170,168L1049,343L1234,347Z" fill="#6dbabe" stroke="#6dbabe" stroke-width="1.51"/><path d="M1060,615L1161,794L1210,662Z" fill="#2c9cc2" stroke="#2c9cc2" stroke-width="1.51"/><path d="M989,32L1170,168L1213,24Z" fill="#94c8bc" stroke="#94c8bc" stroke-width="1.51"/><path d="M1069,-130L989,32L1213,24Z" fill="#a0cebb" stroke="#a0cebb" stroke-width="1.51"/><path d="M1049,343L992,471L1216,419Z" fill="#56b6c0" stroke="#56b6c0" stroke-width="1.51"/><path d="M1008,181L1049,343L1170,168Z" fill="#7cc3be" stroke="#7cc3be" stroke-width="1.51"/><path d="M1145,1118L1056,1239L1175,1259Z" fill="#2e649d" stroke="#2e649d" stroke-width="1.51"/><path d="M1161,794L1021,816L1201,890Z" fill="#2c8cbb" stroke="#2c8cbb" stroke-width="1.51"/><path d="M1021,816L999,882L1201,890Z" fill="#308bba" stroke="#308bba" stroke-width="1.51"/><path d="M1060,615L1021,816L1161,794Z" fill="#2c9bc1" stroke="#2c9bc1" stroke-width="1.51"/><path d="M989,32L1008,181L1170,168Z" fill="#90cabc" stroke="#90cabc" stroke-width="1.51"/><path d="M999,882L929,970L1011,1094Z" fill="#3982b3" stroke="#3982b3" stroke-width="1.51"/><path d="M1011,1094L1056,1239L1145,1118Z" fill="#366ba7" stroke="#366ba7" stroke-width="1.51"/><path d="M992,471L874,573L1060,615Z" fill="#40b3c4" stroke="#40b3c4" stroke-width="1.51"/><path d="M862,778L1021,816L1060,615Z" fill="#31a1c2" stroke="#31a1c2" stroke-width="1.51"/><path d="M874,573L862,778L1060,615Z" fill="#3dacc3" stroke="#3dacc3" stroke-width="1.51"/><path d="M887,-23L989,32L1069,-130Z" fill="#a5d5bc" stroke="#a5d5bc" stroke-width="1.51"/><path d="M887,-139L887,-23L1069,-130Z" fill="#a8d8c1" stroke="#a8d8c1" stroke-width="1.51"/><path d="M1008,181L839,271L1049,343Z" fill="#78c7be" stroke="#78c7be" stroke-width="1.51"/><path d="M1011,1094L859,1231L1056,1239Z" fill="#386ea2" stroke="#386ea2" stroke-width="1.51"/><path d="M849,420L992,471L1049,343Z" fill="#5abdc1" stroke="#5abdc1" stroke-width="1.51"/><path d="M839,271L849,420L1049,343Z" fill="#6ac3bf" stroke="#6ac3bf" stroke-width="1.51"/><path d="M989,32L856,160L1008,181Z" fill="#94d1bd" stroke="#94d1bd" stroke-width="1.51"/><path d="M929,970L885,1078L1011,1094Z" fill="#3f7cb0" stroke="#3f7cb0" stroke-width="1.51"/><path d="M885,1078L859,1231L1011,1094Z" fill="#4274aa" stroke="#4274aa" stroke-width="1.51"/><path d="M862,778L999,882L1021,816Z" fill="#3697bd" stroke="#3697bd" stroke-width="1.51"/><path d="M856,160L839,271L1008,181Z" fill="#89cebc" stroke="#89cebc" stroke-width="1.51"/><path d="M862,778L929,970L999,882Z" fill="#3b91b9" stroke="#3b91b9" stroke-width="1.51"/><path d="M887,-23L856,160L989,32Z" fill="#9ed5bc" stroke="#9ed5bc" stroke-width="1.51"/><path d="M849,420L874,573L992,471Z" fill="#53bbc2" stroke="#53bbc2" stroke-width="1.51"/><path d="M749,6L856,160L887,-23Z" fill="#a5d8ba" stroke="#a5d8ba" stroke-width="1.51"/><path d="M724,931L885,1078L929,970Z" fill="#4885b2" stroke="#4885b2" stroke-width="1.51"/><path d="M862,778L724,931L929,970Z" fill="#4792b7" stroke="#4792b7" stroke-width="1.51"/><path d="M839,271L742,306L849,420Z" fill="#75c8be" stroke="#75c8be" stroke-width="1.51"/><path d="M749,6L736,106L856,160Z" fill="#a3d8b9" stroke="#a3d8b9" stroke-width="1.51"/><path d="M707,1111L756,1250L859,1231Z" fill="#4c749e" stroke="#4c749e" stroke-width="1.51"/><path d="M695,572L720,815L862,778Z" fill="#50acbf" stroke="#50acbf" stroke-width="1.51"/><path d="M720,815L724,931L862,778Z" fill="#4f9bba" stroke="#4f9bba" stroke-width="1.51"/><path d="M849,420L749,467L874,573Z" fill="#5cbec1" stroke="#5cbec1" stroke-width="1.51"/><path d="M695,572L862,778L874,573Z" fill="#4eb2c1" stroke="#4eb2c1" stroke-width="1.51"/><path d="M707,1111L859,1231L885,1078Z" fill="#4c77a8" stroke="#4c77a8" stroke-width="1.51"/><path d="M724,931L707,1111L885,1078Z" fill="#5183ae" stroke="#5183ae" stroke-width="1.51"/><path d="M767,-128L749,6L887,-23Z" fill="#b1ddba" stroke="#b1ddba" stroke-width="1.51"/><path d="M767,-128L887,-23L887,-139Z" fill="#afdcbf" stroke="#afdcbf" stroke-width="1.51"/><path d="M370,1255L281,1279L608,1282Z" fill="#6c7b8f" stroke="#6c7b8f" stroke-width="1.51"/><path d="M749,467L695,572L874,573Z" fill="#58bdc2" stroke="#58bdc2" stroke-width="1.51"/><path d="M736,106L742,306L839,271Z" fill="#8ed1bb" stroke="#8ed1bb" stroke-width="1.51"/><path d="M736,106L839,271L856,160Z" fill="#95d3bb" stroke="#95d3bb" stroke-width="1.51"/><path d="M742,306L749,467L849,420Z" fill="#6ec5be" stroke="#6ec5be" stroke-width="1.51"/><path d="M695,572L608,600L720,815Z" fill="#5cb4bf" stroke="#5cb4bf" stroke-width="1.51"/><path d="M530,162L577,307L736,106Z" fill="#a2d9b8" stroke="#a2d9b8" stroke-width="1.51"/><path d="M736,106L577,307L742,306Z" fill="#92d3ba" stroke="#92d3ba" stroke-width="1.51"/><path d="M742,306L576,440L749,467Z" fill="#75c8bd" stroke="#75c8bd" stroke-width="1.51"/><path d="M707,1111L608,1282L756,1250Z" fill="#52769a" stroke="#52769a" stroke-width="1.51"/><path d="M580,-152L749,6L767,-128Z" fill="#b9e1bc" stroke="#b9e1bc" stroke-width="1.51"/><path d="M608,600L529,783L720,815Z" fill="#60b0be" stroke="#60b0be" stroke-width="1.51"/><path d="M538,1080L707,1111L724,931Z" fill="#5c87ad" stroke="#5c87ad" stroke-width="1.51"/><path d="M577,307L576,440L742,306Z" fill="#81cdbb" stroke="#81cdbb" stroke-width="1.51"/><path d="M720,815L619,879L724,931Z" fill="#579ab6" stroke="#579ab6" stroke-width="1.51"/><path d="M576,440L695,572L749,467Z" fill="#69c3bf" stroke="#69c3bf" stroke-width="1.51"/><path d="M529,42L736,106L749,6Z" fill="#afdeb7" stroke="#afdeb7" stroke-width="1.51"/><path d="M580,-152L529,42L749,6Z" fill="#bce3b6" stroke="#bce3b6" stroke-width="1.51"/><path d="M619,879L538,1080L724,931Z" fill="#5f90b1" stroke="#5f90b1" stroke-width="1.51"/><path d="M529,42L530,162L736,106Z" fill="#b0dfb7" stroke="#b0dfb7" stroke-width="1.51"/><path d="M529,783L619,879L720,815Z" fill="#5fa3b8" stroke="#5fa3b8" stroke-width="1.51"/><path d="M538,1080L608,1282L707,1111Z" fill="#5e7da2" stroke="#5e7da2" stroke-width="1.51"/><path d="M576,440L608,600L695,572Z" fill="#68c2c0" stroke="#68c2c0" stroke-width="1.51"/><path d="M418,-48L529,42L580,-152Z" fill="#c9e9b6" stroke="#c9e9b6" stroke-width="1.51"/><path d="M576,440L395,593L608,600Z" fill="#77c6be" stroke="#77c6be" stroke-width="1.51"/><path d="M395,593L529,783L608,600Z" fill="#74bcbe" stroke="#74bcbe" stroke-width="1.51"/><path d="M538,1080L403,1117L608,1282Z" fill="#6b80a2" stroke="#6b80a2" stroke-width="1.51"/><path d="M403,1117L370,1255L608,1282Z" fill="#6c7d97" stroke="#6c7d97" stroke-width="1.51"/><path d="M433,913L538,1080L619,879Z" fill="#6c95b0" stroke="#6c95b0" stroke-width="1.51"/><path d="M529,783L433,913L619,879Z" fill="#6da2b6" stroke="#6da2b6" stroke-width="1.51"/><path d="M377,505L395,593L576,440Z" fill="#85ccbd" stroke="#85ccbd" stroke-width="1.51"/><path d="M395,593L377,750L529,783Z" fill="#7cbabc" stroke="#7cbabc" stroke-width="1.51"/><path d="M409,183L398,312L530,162Z" fill="#b0dfb7" stroke="#b0dfb7" stroke-width="1.51"/><path d="M398,312L576,440L577,307Z" fill="#8fd2ba" stroke="#8fd2ba" stroke-width="1.51"/><path d="M530,162L398,312L577,307Z" fill="#a3dab8" stroke="#a3dab8" stroke-width="1.51"/><path d="M449,-186L418,-48L580,-152Z" fill="#cfecbd" stroke="#cfecbd" stroke-width="1.51"/><path d="M398,312L377,505L576,440Z" fill="#90d1bb" stroke="#90d1bb" stroke-width="1.51"/><path d="M529,42L409,183L530,162Z" fill="#b9e3b6" stroke="#b9e3b6" stroke-width="1.51"/><path d="M433,913L403,1117L538,1080Z" fill="#768fac" stroke="#768fac" stroke-width="1.51"/><path d="M377,750L433,913L529,783Z" fill="#78abb8" stroke="#78abb8" stroke-width="1.51"/><path d="M418,-48L409,183L529,42Z" fill="#c5e7b5" stroke="#c5e7b5" stroke-width="1.51"/><path d="M79,1232L-81,1274L281,1279Z" fill="#84848f" stroke="#84848f" stroke-width="1.51"/><path d="M281,178L409,183L418,-48Z" fill="#c9e9b4" stroke="#c9e9b4" stroke-width="1.51"/><path d="M224,21L281,178L418,-48Z" fill="#d3eeb3" stroke="#d3eeb3" stroke-width="1.51"/><path d="M235,1082L403,1117L433,913Z" fill="#8292ab" stroke="#8292ab" stroke-width="1.51"/><path d="M256,886L235,1082L433,913Z" fill="#869daf" stroke="#869daf" stroke-width="1.51"/><path d="M377,750L256,886L433,913Z" fill="#83abb5" stroke="#83abb5" stroke-width="1.51"/><path d="M221,-186L418,-48L449,-186Z" fill="#dcf2bd" stroke="#dcf2bd" stroke-width="1.51"/><path d="M248,467L377,505L398,312Z" fill="#9cd6ba" stroke="#9cd6ba" stroke-width="1.51"/><path d="M244,813L256,886L377,750Z" fill="#89b1b7" stroke="#89b1b7" stroke-width="1.51"/><path d="M224,653L377,750L395,593Z" fill="#8bc3bc" stroke="#8bc3bc" stroke-width="1.51"/><path d="M235,307L248,467L398,312Z" fill="#a7dbb8" stroke="#a7dbb8" stroke-width="1.51"/><path d="M281,178L398,312L409,183Z" fill="#b8e3b6" stroke="#b8e3b6" stroke-width="1.51"/><path d="M221,-186L224,21L418,-48Z" fill="#dff3b6" stroke="#dff3b6" stroke-width="1.51"/><path d="M235,1082L281,1279L370,1255Z" fill="#7e8499" stroke="#7e8499" stroke-width="1.51"/><path d="M281,178L235,307L398,312Z" fill="#b6e2b6" stroke="#b6e2b6" stroke-width="1.51"/><path d="M235,1082L370,1255L403,1117Z" fill="#8187a2" stroke="#8187a2" stroke-width="1.51"/><path d="M248,467L224,653L377,505Z" fill="#94d1bc" stroke="#94d1bc" stroke-width="1.51"/><path d="M377,505L224,653L395,593Z" fill="#8ecbbc" stroke="#8ecbbc" stroke-width="1.51"/><path d="M224,653L244,813L377,750Z" fill="#8bbdba" stroke="#8bbdba" stroke-width="1.51"/><path d="M-231,-142L-51,-146L76,-198Z" fill="#f6fbc4" stroke="#f6fbc4" stroke-width="1.51"/><path d="M224,653L144,807L244,813Z" fill="#90bcba" stroke="#90bcba" stroke-width="1.51"/><path d="M124,603L224,653L248,467Z" fill="#98cfbc" stroke="#98cfbc" stroke-width="1.51"/><path d="M108,942L235,1082L256,886Z" fill="#8d9eae" stroke="#8d9eae" stroke-width="1.51"/><path d="M107,176L235,307L281,178Z" fill="#c4e7b5" stroke="#c4e7b5" stroke-width="1.51"/><path d="M224,21L107,176L281,178Z" fill="#d3edb4" stroke="#d3edb4" stroke-width="1.51"/><path d="M235,1082L136,1109L281,1279Z" fill="#888aa1" stroke="#888aa1" stroke-width="1.51"/><path d="M136,1109L79,1232L281,1279Z" fill="#868798" stroke="#868798" stroke-width="1.51"/><path d="M76,-198L64,-8L221,-186Z" fill="#ecf8ba" stroke="#ecf8ba" stroke-width="1.51"/><path d="M221,-186L64,-8L224,21Z" fill="#e6f5b3" stroke="#e6f5b3" stroke-width="1.51"/><path d="M108,942L136,1109L235,1082Z" fill="#8f97aa" stroke="#8f97aa" stroke-width="1.51"/><path d="M94,333L95,451L235,307Z" fill="#b1dfb7" stroke="#b1dfb7" stroke-width="1.51"/><path d="M95,451L124,603L248,467Z" fill="#a1d6bb" stroke="#a1d6bb" stroke-width="1.51"/><path d="M235,307L95,451L248,467Z" fill="#a9dbb9" stroke="#a9dbb9" stroke-width="1.51"/><path d="M244,813L144,807L256,886Z" fill="#8eb0b5" stroke="#8eb0b5" stroke-width="1.51"/><path d="M144,807L108,942L256,886Z" fill="#90abb2" stroke="#90abb2" stroke-width="1.51"/><path d="M107,176L94,333L235,307Z" fill="#bfe5b6" stroke="#bfe5b6" stroke-width="1.51"/><path d="M64,-8L107,176L224,21Z" fill="#ddf2b3" stroke="#ddf2b3" stroke-width="1.51"/><path d="M124,603L144,807L224,653Z" fill="#96c5bb" stroke="#96c5bb" stroke-width="1.51"/><path d="M64,-8L-36,156L107,176Z" fill="#def1b2" stroke="#def1b2" stroke-width="1.51"/><path d="M108,942L-67,1079L136,1109Z" fill="#9699aa" stroke="#9699aa" stroke-width="1.51"/><path d="M-22,921L108,942L144,807Z" fill="#96acb2" stroke="#96acb2" stroke-width="1.51"/><path d="M-88,757L-22,921L144,807Z" fill="#9bb5b6" stroke="#9bb5b6" stroke-width="1.51"/><path d="M124,603L-42,645L144,807Z" fill="#9cc7bb" stroke="#9cc7bb" stroke-width="1.51"/><path d="M-42,645L-88,757L144,807Z" fill="#9ec3bc" stroke="#9ec3bc" stroke-width="1.51"/><path d="M-51,-146L64,-8L76,-198Z" fill="#f1fab9" stroke="#f1fab9" stroke-width="1.51"/><path d="M-22,921L-67,1079L108,942Z" fill="#99a1ae" stroke="#99a1ae" stroke-width="1.51"/><path d="M95,451L-12,431L124,603Z" fill="#a7d8ba" stroke="#a7d8ba" stroke-width="1.51"/><path d="M-12,431L-42,645L124,603Z" fill="#a5d4bc" stroke="#a5d4bc" stroke-width="1.51"/><path d="M-67,1079L79,1232L136,1109Z" fill="#948ea3" stroke="#948ea3" stroke-width="1.51"/><path d="M-36,156L-85,295L94,333Z" fill="#c9e9b7" stroke="#c9e9b7" stroke-width="1.51"/><path d="M94,333L-12,431L95,451Z" fill="#b2deb8" stroke="#b2deb8" stroke-width="1.51"/><path d="M-36,156L94,333L107,176Z" fill="#cdebb4" stroke="#cdebb4" stroke-width="1.51"/><path d="M-93,45L-36,156L64,-8Z" fill="#e5f5b5" stroke="#e5f5b5" stroke-width="1.51"/><path d="M-85,295L-12,431L94,333Z" fill="#bae2b8" stroke="#bae2b8" stroke-width="1.51"/><path d="M-67,1079L-81,1274L79,1232Z" fill="#908b9d" stroke="#908b9d" stroke-width="1.51"/><path d="M-51,-146L-93,45L64,-8Z" fill="#eef9b5" stroke="#eef9b5" stroke-width="1.51"/><path d="M-206,1198L-81,1274L-67,1079Z" fill="#948ca4" stroke="#948ca4" stroke-width="1.51"/><path d="M-207,463L-160,646L-42,645Z" fill="#a8d4c5" stroke="#a8d4c5" stroke-width="1.51"/><path d="M-215,959L-67,1079L-22,921Z" fill="#9ba1b4" stroke="#9ba1b4" stroke-width="1.51"/><path d="M-88,757L-215,959L-22,921Z" fill="#9cb0ba" stroke="#9cb0ba" stroke-width="1.51"/><path d="M-85,295L-168,330L-12,431Z" fill="#bce3be" stroke="#bce3be" stroke-width="1.51"/><path d="M-168,330L-207,463L-12,431Z" fill="#b7e1c2" stroke="#b7e1c2" stroke-width="1.51"/><path d="M-207,463L-42,645L-12,431Z" fill="#abdac2" stroke="#abdac2" stroke-width="1.51"/><path d="M-231,-142L-93,45L-51,-146Z" fill="#f4fabf" stroke="#f4fabf" stroke-width="1.51"/><path d="M-231,-142L-244,10L-93,45Z" fill="#f3fabf" stroke="#f3fabf" stroke-width="1.51"/><path d="M-215,959L-174,1082L-67,1079Z" fill="#9b9bb4" stroke="#9b9bb4" stroke-width="1.51"/><path d="M-174,1082L-206,1198L-67,1079Z" fill="#9b92b1" stroke="#9b92b1" stroke-width="1.51"/><path d="M-160,646L-88,757L-42,645Z" fill="#a2cac2" stroke="#a2cac2" stroke-width="1.51"/><path d="M-227,188L-85,295L-36,156Z" fill="#d4eebd" stroke="#d4eebd" stroke-width="1.51"/><path d="M-93,45L-227,188L-36,156Z" fill="#e1f3bc" stroke="#e1f3bc" stroke-width="1.51"/><path d="M-224,749L-215,959L-88,757Z" fill="#9fb9c2" stroke="#9fb9c2" stroke-width="1.51"/><path d="M-244,10L-227,188L-93,45Z" fill="#e8f6c0" stroke="#e8f6c0" stroke-width="1.51"/><path d="M-160,646L-224,749L-88,757Z" fill="#a2c6c6" stroke="#a2c6c6" stroke-width="1.51"/><path d="M-227,188L-168,330L-85,295Z" fill="#cceac1" stroke="#cceac1" stroke-width="1.51"/><path d="M-207,463L-224,749L-160,646Z" fill="#a7d1c9" stroke="#a7d1c9" stroke-width="1.51"/><path d="M-227,188L-207,463L-168,330Z" fill="#c3e7c5" stroke="#c3e7c5" stroke-width="1.51"/><path d="M-215,959L-206,1198L-174,1082Z" fill="#9c97b5" stroke="#9c97b5" stroke-width="1.51"/><path d="M-227,188L-224,749L-207,463Z" fill="#b4dec9" stroke="#b4dec9" stroke-width="1.51"/><path d="M-227,188L-244,10L-224,749Z" fill="#c6e8c6" stroke="#c6e8c6" stroke-width="1.51"/></svg>