<svg xmlns="http://www.w3.org/2000/svg" width="1920" height="1080"><path d="M283,1293L-341,1381L547,1313Z" fill="#d07f54" stroke="#d07f54" stroke-width="1.51"/><path d="M547,1313L-341,1381L920,1397Z" fill="#c97547" stroke="#c97547" stroke-width="1.51"/><path d="M1589,1377L920,1397L1782,1405Z" fill="#bb2127" stroke="#bb2127" stroke-width="1.51"/><path d="M689,-325L920,-277L1815,-300Z" fill="#ffb77a" stroke="#ffb77a" stroke-width="1.51"/><path d="M920,-277L1265,-194L1815,-300Z" fill="#ffa86f" stroke="#ffa86f" stroke-width="1.51"/><path d="M1865,-183L1862,-58L2179,-282Z" fill="#e48d64" stroke="#e48d64" stroke-width="1.51"/><path d="M1919,1296L1782,1405L2199,1305Z" fill="#a80026" stroke="#a80026" stroke-width="1.51"/><path d="M2181,919L2114,1039L2199,1305Z" fill="#b20625" stroke="#b20625" stroke-width="1.51"/><path d="M2044,860L2181,919L2214,581Z" fill="#c82a28" stroke="#c82a28" stroke-width="1.51"/><path d="M2181,919L2199,1305L2214,581Z" fill="#bb1524" stroke="#bb1524" stroke-width="1.51"/><path d="M2179,-282L1862,-58L2225,49Z" fill="#d7865d" stroke="#d7865d" stroke-width="1.51"/><path d="M1927,447L2214,581L2230,370Z" fill="#cd5a34" stroke="#cd5a34" stroke-width="1.51"/><path d="M2179,-282L2225,49L2258,157Z" fill="#c87e57" stroke="#c87e57" stroke-width="1.51"/><path d="M2230,370L2214,581L2258,157Z" fill="#c35f38" stroke="#c35f38" stroke-width="1.51"/><path d="M2214,581L2199,1305L2258,157Z" fill="#c23a2d" stroke="#c23a2d" stroke-width="1.51"/><path d="M1874,143L2230,370L2258,157Z" fill="#d07041" stroke="#d07041" stroke-width="1.51"/><path d="M2225,49L1874,143L2258,157Z" fill="#d17a4a" stroke="#d17a4a" stroke-width="1.51"/><path d="M2114,1039L2002,1042L2199,1305Z" fill="#b40425" stroke="#b40425" stroke-width="1.51"/><path d="M2002,1042L1919,1296L2199,1305Z" fill="#b20026" stroke="#b20026" stroke-width="1.51"/><path d="M1938,575L2044,860L2214,581Z" fill="#d23f2c" stroke="#d23f2c" stroke-width="1.51"/><path d="M1927,447L1938,575L2214,581Z" fill="#d65631" stroke="#d65631" stroke-width="1.51"/><path d="M1874,143L1927,447L2230,370Z" fill="#da6b38" stroke="#da6b38" stroke-width="1.51"/><path d="M1862,-58L1874,143L2225,49Z" fill="#df8351" stroke="#df8351" stroke-width="1.51"/><path d="M2044,860L2114,1039L2181,919Z" fill="#c21523" stroke="#c21523" stroke-width="1.51"/><path d="M1874,143L1824,336L1927,447Z" fill="#e46f38" stroke="#e46f38" stroke-width="1.51"/><path d="M1815,-300L1865,-183L2179,-282Z" fill="#e6906b" stroke="#e6906b" stroke-width="1.51"/><path d="M2044,860L2002,1042L2114,1039Z" fill="#c60d22" stroke="#c60d22" stroke-width="1.51"/><path d="M1938,575L1668,775L2044,860Z" fill="#e03728" stroke="#e03728" stroke-width="1.51"/><path d="M1762,1018L2002,1042L2044,860Z" fill="#d11022" stroke="#d11022" stroke-width="1.51"/><path d="M1668,775L1762,1018L2044,860Z" fill="#dc2423" stroke="#dc2423" stroke-width="1.51"/><path d="M1746,565L1668,775L1938,575Z" fill="#e74c2b" stroke="#e74c2b" stroke-width="1.51"/><path d="M1762,1018L1919,1296L2002,1042Z" fill="#c70724" stroke="#c70724" stroke-width="1.51"/><path d="M1265,-194L1487,-148L1815,-300Z" fill="#fe9d66" stroke="#fe9d66" stroke-width="1.51"/><path d="M1927,447L1746,565L1938,575Z" fill="#e25a30" stroke="#e25a30" stroke-width="1.51"/><path d="M1762,1018L1782,1405L1919,1296Z" fill="#bf0525" stroke="#bf0525" stroke-width="1.51"/><path d="M1824,336L1746,565L1927,447Z" fill="#e56332" stroke="#e56332" stroke-width="1.51"/><path d="M1762,1018L1589,1377L1782,1405Z" fill="#c10a23" stroke="#c10a23" stroke-width="1.51"/><path d="M1756,-98L1700,142L1862,-58Z" fill="#ee8a52" stroke="#ee8a52" stroke-width="1.51"/><path d="M1756,-98L1862,-58L1865,-183Z" fill="#ed8e5d" stroke="#ed8e5d" stroke-width="1.51"/><path d="M1862,-58L1700,142L1874,143Z" fill="#eb864c" stroke="#eb864c" stroke-width="1.51"/><path d="M1700,142L1824,336L1874,143Z" fill="#ea7b40" stroke="#ea7b40" stroke-width="1.51"/><path d="M1815,-300L1756,-98L1865,-183Z" fill="#ef9264" stroke="#ef9264" stroke-width="1.51"/><path d="M1538,1037L1589,1377L1762,1018Z" fill="#d41120" stroke="#d41120" stroke-width="1.51"/><path d="M1588,-72L1756,-98L1815,-300Z" fill="#f49360" stroke="#f49360" stroke-width="1.51"/><path d="M1700,142L1555,204L1824,336Z" fill="#f17c3c" stroke="#f17c3c" stroke-width="1.51"/><path d="M1462,403L1746,565L1824,336Z" fill="#ef6830" stroke="#ef6830" stroke-width="1.51"/><path d="M1555,204L1462,403L1824,336Z" fill="#f37533" stroke="#f37533" stroke-width="1.51"/><path d="M1588,-72L1700,142L1756,-98Z" fill="#f48d51" stroke="#f48d51" stroke-width="1.51"/><path d="M1487,-148L1588,-72L1815,-300Z" fill="#fa9660" stroke="#fa9660" stroke-width="1.51"/><path d="M1324,1270L920,1397L1589,1377Z" fill="#c72e2a" stroke="#c72e2a" stroke-width="1.51"/><path d="M1668,775L1511,863L1762,1018Z" fill="#e7281f" stroke="#e7281f" stroke-width="1.51"/><path d="M1511,863L1538,1037L1762,1018Z" fill="#e41e1d" stroke="#e41e1d" stroke-width="1.51"/><path d="M1458,697L1668,775L1746,565Z" fill="#f04826" stroke="#f04826" stroke-width="1.51"/><path d="M1462,403L1458,697L1746,565Z" fill="#f3602c" stroke="#f3602c" stroke-width="1.51"/><path d="M1588,-72L1555,204L1700,142Z" fill="#f68b47" stroke="#f68b47" stroke-width="1.51"/><path d="M1538,1037L1324,1270L1589,1377Z" fill="#d11f25" stroke="#d11f25" stroke-width="1.51"/><path d="M1458,697L1511,863L1668,775Z" fill="#f23c24" stroke="#f23c24" stroke-width="1.51"/><path d="M1339,620L1458,697L1462,403Z" fill="#f8652e" stroke="#f8652e" stroke-width="1.51"/><path d="M1313,1057L1324,1270L1538,1037Z" fill="#df2b25" stroke="#df2b25" stroke-width="1.51"/><path d="M1375,-20L1350,126L1555,204Z" fill="#fd934b" stroke="#fd934b" stroke-width="1.51"/><path d="M1375,-20L1555,204L1588,-72Z" fill="#fc934f" stroke="#fc934f" stroke-width="1.51"/><path d="M1487,-148L1375,-20L1588,-72Z" fill="#fd995b" stroke="#fd995b" stroke-width="1.51"/><path d="M1511,863L1313,1057L1538,1037Z" fill="#e92b1f" stroke="#e92b1f" stroke-width="1.51"/><path d="M1350,126L1462,403L1555,204Z" fill="#fa843e" stroke="#fa843e" stroke-width="1.51"/><path d="M1350,126L1233,360L1462,403Z" fill="#fd843b" stroke="#fd843b" stroke-width="1.51"/><path d="M1458,697L1223,884L1511,863Z" fill="#f54225" stroke="#f54225" stroke-width="1.51"/><path d="M1223,884L1313,1057L1511,863Z" fill="#f03923" stroke="#f03923" stroke-width="1.51"/><path d="M1265,-194L1375,-20L1487,-148Z" fill="#ffa061" stroke="#ffa061" stroke-width="1.51"/><path d="M-100,-289L417,-254L689,-325Z" fill="#ffe89a" stroke="#ffe89a" stroke-width="1.51"/><path d="M1339,620L1223,884L1458,697Z" fill="#fa502a" stroke="#fa502a" stroke-width="1.51"/><path d="M1233,360L1339,620L1462,403Z" fill="#fc7534" stroke="#fc7534" stroke-width="1.51"/><path d="M1125,1228L920,1397L1324,1270Z" fill="#ce432d" stroke="#ce432d" stroke-width="1.51"/><path d="M1160,809L1223,884L1339,620Z" fill="#fc532b" stroke="#fc532b" stroke-width="1.51"/><path d="M1233,360L1098,451L1339,620Z" fill="#fe7c36" stroke="#fe7c36" stroke-width="1.51"/><path d="M1265,-194L1148,-139L1375,-20Z" fill="#ffa664" stroke="#ffa664" stroke-width="1.51"/><path d="M1082,-4L1350,126L1375,-20Z" fill="#ff9f56" stroke="#ff9f56" stroke-width="1.51"/><path d="M1148,-139L1082,-4L1375,-20Z" fill="#ffa860" stroke="#ffa860" stroke-width="1.51"/><path d="M1313,1057L1125,1228L1324,1270Z" fill="#de3629" stroke="#de3629" stroke-width="1.51"/><path d="M1109,613L1160,809L1339,620Z" fill="#fd652f" stroke="#fd652f" stroke-width="1.51"/><path d="M1098,451L1109,613L1339,620Z" fill="#fd7735" stroke="#fd7735" stroke-width="1.51"/><path d="M1034,246L1233,360L1350,126Z" fill="#ff9444" stroke="#ff9444" stroke-width="1.51"/><path d="M1082,-4L1034,246L1350,126Z" fill="#ffa351" stroke="#ffa351" stroke-width="1.51"/><path d="M920,-277L1148,-139L1265,-194Z" fill="#ffb671" stroke="#ffb671" stroke-width="1.51"/><path d="M1223,884L1000,1045L1313,1057Z" fill="#ef4726" stroke="#ef4726" stroke-width="1.51"/><path d="M1000,1045L1125,1228L1313,1057Z" fill="#e5462a" stroke="#e5462a" stroke-width="1.51"/><path d="M1034,246L1098,451L1233,360Z" fill="#fe903e" stroke="#fe903e" stroke-width="1.51"/><path d="M1160,809L1000,1045L1223,884Z" fill="#f45329" stroke="#f45329" stroke-width="1.51"/><path d="M831,950L1000,1045L1160,809Z" fill="#f35f2c" stroke="#f35f2c" stroke-width="1.51"/><path d="M1109,613L771,690L1160,809Z" fill="#fd7333" stroke="#fd7333" stroke-width="1.51"/><path d="M771,690L831,950L1160,809Z" fill="#fa6f31" stroke="#fa6f31" stroke-width="1.51"/><path d="M907,55L1034,246L1082,-4Z" fill="#ffb057" stroke="#ffb057" stroke-width="1.51"/><path d="M920,-277L1082,-4L1148,-139Z" fill="#ffb86d" stroke="#ffb86d" stroke-width="1.51"/><path d="M1000,1045L850,1162L1125,1228Z" fill="#e2562f" stroke="#e2562f" stroke-width="1.51"/><path d="M850,1162L920,1397L1125,1228Z" fill="#d45431" stroke="#d45431" stroke-width="1.51"/><path d="M920,-277L907,55L1082,-4Z" fill="#ffbb69" stroke="#ffbb69" stroke-width="1.51"/><path d="M1098,451L768,498L1109,613Z" fill="#fd8c3b" stroke="#fd8c3b" stroke-width="1.51"/><path d="M768,498L771,690L1109,613Z" fill="#fd8a3b" stroke="#fd8a3b" stroke-width="1.51"/><path d="M1034,246L768,498L1098,451Z" fill="#fe9941" stroke="#fe9941" stroke-width="1.51"/><path d="M907,55L821,142L1034,246Z" fill="#ffb255" stroke="#ffb255" stroke-width="1.51"/><path d="M821,142L768,498L1034,246Z" fill="#fea748" stroke="#fea748" stroke-width="1.51"/><path d="M649,-99L907,55L920,-277Z" fill="#ffc470" stroke="#ffc470" stroke-width="1.51"/><path d="M831,950L850,1162L1000,1045Z" fill="#eb612f" stroke="#eb612f" stroke-width="1.51"/><path d="M644,444L768,498L821,142Z" fill="#fea847" stroke="#fea847" stroke-width="1.51"/><path d="M698,151L644,444L821,142Z" fill="#ffb451" stroke="#ffb451" stroke-width="1.51"/><path d="M689,-325L649,-99L920,-277Z" fill="#ffce7f" stroke="#ffce7f" stroke-width="1.51"/><path d="M850,1162L547,1313L920,1397Z" fill="#d15f36" stroke="#d15f36" stroke-width="1.51"/><path d="M771,690L664,882L831,950Z" fill="#fa7735" stroke="#fa7735" stroke-width="1.51"/><path d="M649,-99L821,142L907,55Z" fill="#ffc064" stroke="#ffc064" stroke-width="1.51"/><path d="M656,745L664,882L771,690Z" fill="#fe8038" stroke="#fe8038" stroke-width="1.51"/><path d="M649,-99L698,151L821,142Z" fill="#ffc262" stroke="#ffc262" stroke-width="1.51"/><path d="M831,950L611,1078L850,1162Z" fill="#eb6931" stroke="#eb6931" stroke-width="1.51"/><path d="M611,1078L547,1313L850,1162Z" fill="#e16b37" stroke="#e16b37" stroke-width="1.51"/><path d="M664,882L611,1078L831,950Z" fill="#f37131" stroke="#f37131" stroke-width="1.51"/><path d="M644,444L656,745L768,498Z" fill="#fe9a41" stroke="#fe9a41" stroke-width="1.51"/><path d="M768,498L656,745L771,690Z" fill="#fe8e3d" stroke="#fe8e3d" stroke-width="1.51"/><path d="M644,444L425,483L656,745Z" fill="#fea246" stroke="#fea246" stroke-width="1.51"/><path d="M425,483L395,716L656,745Z" fill="#ff9b48" stroke="#ff9b48" stroke-width="1.51"/><path d="M417,-254L649,-99L689,-325Z" fill="#ffd684" stroke="#ffd684" stroke-width="1.51"/><path d="M425,220L644,444L698,151Z" fill="#feb953" stroke="#feb953" stroke-width="1.51"/><path d="M649,-99L409,15L698,151Z" fill="#ffcc6c" stroke="#ffcc6c" stroke-width="1.51"/><path d="M409,15L425,220L698,151Z" fill="#ffca66" stroke="#ffca66" stroke-width="1.51"/><path d="M425,220L425,483L644,444Z" fill="#ffb552" stroke="#ffb552" stroke-width="1.51"/><path d="M395,716L367,840L656,745Z" fill="#ff8f44" stroke="#ff8f44" stroke-width="1.51"/><path d="M656,745L367,840L664,882Z" fill="#fc853c" stroke="#fc853c" stroke-width="1.51"/><path d="M367,840L611,1078L664,882Z" fill="#f67e39" stroke="#f67e39" stroke-width="1.51"/><path d="M394,1182L547,1313L611,1078Z" fill="#e2743f" stroke="#e2743f" stroke-width="1.51"/><path d="M417,-254L409,15L649,-99Z" fill="#ffd77f" stroke="#ffd77f" stroke-width="1.51"/><path d="M367,840L394,1182L611,1078Z" fill="#f07e3e" stroke="#f07e3e" stroke-width="1.51"/><path d="M2,1227L-341,1381L283,1293Z" fill="#d6865e" stroke="#d6865e" stroke-width="1.51"/><path d="M367,840L280,898L394,1182Z" fill="#f68744" stroke="#f68744" stroke-width="1.51"/><path d="M394,1182L327,1223L547,1313Z" fill="#dc7844" stroke="#dc7844" stroke-width="1.51"/><path d="M327,1223L283,1293L547,1313Z" fill="#d67847" stroke="#d67847" stroke-width="1.51"/><path d="M280,898L182,1058L394,1182Z" fill="#f08849" stroke="#f08849" stroke-width="1.51"/><path d="M-100,-289L259,-136L417,-254Z" fill="#ffeb9d" stroke="#ffeb9d" stroke-width="1.51"/><path d="M259,-136L409,15L417,-254Z" fill="#ffdf88" stroke="#ffdf88" stroke-width="1.51"/><path d="M141,620L395,716L425,483Z" fill="#ffab54" stroke="#ffab54" stroke-width="1.51"/><path d="M145,508L141,620L425,483Z" fill="#ffb65d" stroke="#ffb65d" stroke-width="1.51"/><path d="M145,508L425,483L425,220Z" fill="#ffbd5c" stroke="#ffbd5c" stroke-width="1.51"/><path d="M278,124L145,508L425,220Z" fill="#fec966" stroke="#fec966" stroke-width="1.51"/><path d="M409,15L278,124L425,220Z" fill="#fed46f" stroke="#fed46f" stroke-width="1.51"/><path d="M182,1058L327,1223L394,1182Z" fill="#e6834a" stroke="#e6834a" stroke-width="1.51"/><path d="M259,-136L278,124L409,15Z" fill="#ffdc7f" stroke="#ffdc7f" stroke-width="1.51"/><path d="M259,-136L158,-72L278,124Z" fill="#ffe187" stroke="#ffe187" stroke-width="1.51"/><path d="M280,898L367,840L395,716Z" fill="#fe9249" stroke="#fe9249" stroke-width="1.51"/><path d="M141,620L280,898L395,716Z" fill="#ff9d51" stroke="#ff9d51" stroke-width="1.51"/><path d="M13,426L145,508L278,124Z" fill="#ffc86a" stroke="#ffc86a" stroke-width="1.51"/><path d="M182,1058L283,1293L327,1223Z" fill="#e3834e" stroke="#e3834e" stroke-width="1.51"/><path d="M-100,-289L158,-72L259,-136Z" fill="#ffeb9c" stroke="#ffeb9c" stroke-width="1.51"/><path d="M37,63L-51,138L278,124Z" fill="#ffdf83" stroke="#ffdf83" stroke-width="1.51"/><path d="M-51,138L13,426L278,124Z" fill="#ffd478" stroke="#ffd478" stroke-width="1.51"/><path d="M158,-72L37,63L278,124Z" fill="#ffe085" stroke="#ffe085" stroke-width="1.51"/><path d="M141,620L7,725L280,898Z" fill="#ffa059" stroke="#ffa059" stroke-width="1.51"/><path d="M182,1058L2,1227L283,1293Z" fill="#e48654" stroke="#e48654" stroke-width="1.51"/><path d="M-88,888L182,1058L280,898Z" fill="#fa9252" stroke="#fa9252" stroke-width="1.51"/><path d="M7,725L-88,888L280,898Z" fill="#ff9b5a" stroke="#ff9b5a" stroke-width="1.51"/><path d="M-88,888L-2,1055L182,1058Z" fill="#f79157" stroke="#f79157" stroke-width="1.51"/><path d="M-2,1055L2,1227L182,1058Z" fill="#ec8c58" stroke="#ec8c58" stroke-width="1.51"/><path d="M-100,-289L37,63L158,-72Z" fill="#ffea9a" stroke="#ffea9a" stroke-width="1.51"/><path d="M13,426L7,725L141,620Z" fill="#ffb566" stroke="#ffb566" stroke-width="1.51"/><path d="M13,426L141,620L145,508Z" fill="#ffbc67" stroke="#ffbc67" stroke-width="1.51"/><path d="M-334,668L7,725L13,426Z" fill="#ffb86f" stroke="#ffb86f" stroke-width="1.51"/><path d="M-187,336L-334,668L13,426Z" fill="#ffc77a" stroke="#ffc77a" stroke-width="1.51"/><path d="M-51,138L-187,336L13,426Z" fill="#ffd27b" stroke="#ffd27b" stroke-width="1.51"/><path d="M-100,-289L-189,-261L37,63Z" fill="#fff0a8" stroke="#fff0a8" stroke-width="1.51"/><path d="M-315,-39L-51,138L37,63Z" fill="#ffe795" stroke="#ffe795" stroke-width="1.51"/><path d="M-189,-261L-315,-39L37,63Z" fill="#ffeea5" stroke="#ffeea5" stroke-width="1.51"/><path d="M-88,888L-167,944L-2,1055Z" fill="#fb975f" stroke="#fb975f" stroke-width="1.51"/><path d="M-2,1055L-189,1011L2,1227Z" fill="#ef905f" stroke="#ef905f" stroke-width="1.51"/><path d="M-167,944L-189,1011L-2,1055Z" fill="#f89661" stroke="#f89661" stroke-width="1.51"/><path d="M-334,668L-88,888L7,725Z" fill="#ffa76a" stroke="#ffa76a" stroke-width="1.51"/><path d="M-189,1011L-341,1381L2,1227Z" fill="#e58f68" stroke="#e58f68" stroke-width="1.51"/><path d="M-331,304L-187,336L-51,138Z" fill="#ffd987" stroke="#ffd987" stroke-width="1.51"/><path d="M-315,-39L-331,304L-51,138Z" fill="#ffe595" stroke="#ffe595" stroke-width="1.51"/><path d="M-334,668L-167,944L-88,888Z" fill="#ffa36b" stroke="#ffa36b" stroke-width="1.51"/><path d="M-331,304L-334,668L-187,336Z" fill="#ffcd83" stroke="#ffcd83" stroke-width="1.51"/><path d="M-334,668L-189,1011L-167,944Z" fill="#ffa16c" stroke="#ffa16c" stroke-width="1.51"/><path d="M-334,668L-341,1381L-189,1011Z" fill="#f8996c" stroke="#f8996c" stroke-width="1.51"/></svg>