<svg xmlns="http://www.w3.org/2000/svg" width="1920" height="1080"><path d="M76,-198L221,-186L449,-186Z" fill="#ffeda2" stroke="#ffeda2" stroke-width="1.51"/><path d="M756,1250L608,1282L1175,1259Z" fill="#c75935" stroke="#c75935" stroke-width="1.51"/><path d="M76,-198L449,-186L1214,-189Z" fill="#ffdb8c" stroke="#ffdb8c" stroke-width="1.51"/><path d="M449,-186L887,-139L1214,-189Z" fill="#ffca80" stroke="#ffca80" stroke-width="1.51"/><path d="M1175,1259L608,1282L1521,1253Z" fill="#c5422e" stroke="#c5422e" stroke-width="1.51"/><path d="M76,-198L1214,-189L1637,-203Z" fill="#ffc37f" stroke="#ffc37f" stroke-width="1.51"/><path d="M1637,-203L1793,-114L1993,-137Z" fill="#ec936a" stroke="#ec936a" stroke-width="1.51"/><path d="M1648,1248L1521,1253L1999,1243Z" fill="#b30624" stroke="#b30624" stroke-width="1.51"/><path d="M1848,1236L1648,1248L1999,1243Z" fill="#ad0226" stroke="#ad0226" stroke-width="1.51"/><path d="M1637,-203L1993,-137L2106,-187Z" fill="#e5906d" stroke="#e5906d" stroke-width="1.51"/><path d="M2114,470L2111,638L2139,734Z" fill="#c5442f" stroke="#c5442f" stroke-width="1.51"/><path d="M1951,1072L1999,1243L2142,1221Z" fill="#a60026" stroke="#a60026" stroke-width="1.51"/><path d="M2139,734L1998,754L2143,948Z" fill="#c32226" stroke="#c32226" stroke-width="1.51"/><path d="M1998,754L1965,900L2143,948Z" fill="#c51a24" stroke="#c51a24" stroke-width="1.51"/><path d="M2106,-187L1993,-137L2149,-26Z" fill="#d18867" stroke="#d18867" stroke-width="1.51"/><path d="M2149,-26L1983,116L2158,158Z" fill="#cd7d53" stroke="#cd7d53" stroke-width="1.51"/><path d="M1983,116L2000,273L2158,158Z" fill="#d17949" stroke="#d17949" stroke-width="1.51"/><path d="M2143,948L1951,1072L2158,1042Z" fill="#b30625" stroke="#b30625" stroke-width="1.51"/><path d="M1951,1072L2142,1221L2158,1042Z" fill="#aa0026" stroke="#aa0026" stroke-width="1.51"/><path d="M2139,734L2143,948L2158,1042Z" fill="#b71123" stroke="#b71123" stroke-width="1.51"/><path d="M2158,158L2000,273L2159,281Z" fill="#ca7144" stroke="#ca7144" stroke-width="1.51"/><path d="M2000,273L2114,470L2159,281Z" fill="#ca663a" stroke="#ca663a" stroke-width="1.51"/><path d="M2114,470L2139,734L2159,281Z" fill="#c45534" stroke="#c45534" stroke-width="1.51"/><path d="M2139,734L2158,1042L2159,281Z" fill="#c2362c" stroke="#c2362c" stroke-width="1.51"/><path d="M1948,-40L1983,116L2149,-26Z" fill="#d68359" stroke="#d68359" stroke-width="1.51"/><path d="M2000,273L1923,421L2114,470Z" fill="#d26437" stroke="#d26437" stroke-width="1.51"/><path d="M1981,648L2111,638L2114,470Z" fill="#ca4b30" stroke="#ca4b30" stroke-width="1.51"/><path d="M1965,900L1951,1072L2143,948Z" fill="#be0a23" stroke="#be0a23" stroke-width="1.51"/><path d="M1993,-137L1948,-40L2149,-26Z" fill="#d68762" stroke="#d68762" stroke-width="1.51"/><path d="M2111,638L1998,754L2139,734Z" fill="#c8332a" stroke="#c8332a" stroke-width="1.51"/><path d="M1981,648L1998,754L2111,638Z" fill="#ce3a2b" stroke="#ce3a2b" stroke-width="1.51"/><path d="M1923,421L1981,648L2114,470Z" fill="#d25732" stroke="#d25732" stroke-width="1.51"/><path d="M1214,-189L1319,-166L1513,-170Z" fill="#ffa66f" stroke="#ffa66f" stroke-width="1.51"/><path d="M1214,-189L1513,-170L1637,-203Z" fill="#ffa16e" stroke="#ffa16e" stroke-width="1.51"/><path d="M1817,508L1833,573L1923,421Z" fill="#e05d32" stroke="#e05d32" stroke-width="1.51"/><path d="M1923,421L1833,573L1981,648Z" fill="#db5531" stroke="#db5531" stroke-width="1.51"/><path d="M1948,-40L1832,-26L1983,116Z" fill="#e18759" stroke="#e18759" stroke-width="1.51"/><path d="M1981,648L1795,750L1998,754Z" fill="#d93429" stroke="#d93429" stroke-width="1.51"/><path d="M1795,750L1965,900L1998,754Z" fill="#d52626" stroke="#d52626" stroke-width="1.51"/><path d="M1951,1072L1848,1236L1999,1243Z" fill="#ae0026" stroke="#ae0026" stroke-width="1.51"/><path d="M1804,265L1923,421L2000,273Z" fill="#de6e3b" stroke="#de6e3b" stroke-width="1.51"/><path d="M1983,116L1820,163L2000,273Z" fill="#dd7d48" stroke="#dd7d48" stroke-width="1.51"/><path d="M1820,163L1804,265L2000,273Z" fill="#e27944" stroke="#e27944" stroke-width="1.51"/><path d="M1778,921L1951,1072L1965,900Z" fill="#cb0c22" stroke="#cb0c22" stroke-width="1.51"/><path d="M1793,-114L1948,-40L1993,-137Z" fill="#e48d65" stroke="#e48d65" stroke-width="1.51"/><path d="M1778,921L1790,1062L1951,1072Z" fill="#ca0a23" stroke="#ca0a23" stroke-width="1.51"/><path d="M1833,573L1795,750L1981,648Z" fill="#de422b" stroke="#de422b" stroke-width="1.51"/><path d="M1832,-26L1820,163L1983,116Z" fill="#e48552" stroke="#e48552" stroke-width="1.51"/><path d="M1056,1239L756,1250L1175,1259Z" fill="#c84e31" stroke="#c84e31" stroke-width="1.51"/><path d="M1793,-114L1832,-26L1948,-40Z" fill="#e88d60" stroke="#e88d60" stroke-width="1.51"/><path d="M1790,1062L1848,1236L1951,1072Z" fill="#be0126" stroke="#be0126" stroke-width="1.51"/><path d="M1795,750L1778,921L1965,900Z" fill="#d71f24" stroke="#d71f24" stroke-width="1.51"/><path d="M1804,265L1817,508L1923,421Z" fill="#e26836" stroke="#e26836" stroke-width="1.51"/><path d="M1804,265L1647,346L1817,508Z" fill="#e86d35" stroke="#e86d35" stroke-width="1.51"/><path d="M1647,346L1624,475L1817,508Z" fill="#eb6731" stroke="#eb6731" stroke-width="1.51"/><path d="M1703,42L1820,163L1832,-26Z" fill="#eb8953" stroke="#eb8953" stroke-width="1.51"/><path d="M1617,616L1795,750L1833,573Z" fill="#e6472a" stroke="#e6472a" stroke-width="1.51"/><path d="M1790,1062L1648,1248L1848,1236Z" fill="#bb0525" stroke="#bb0525" stroke-width="1.51"/><path d="M1660,1063L1648,1248L1790,1062Z" fill="#c80824" stroke="#c80824" stroke-width="1.51"/><path d="M1700,200L1804,265L1820,163Z" fill="#e97f44" stroke="#e97f44" stroke-width="1.51"/><path d="M1817,508L1617,616L1833,573Z" fill="#e6562d" stroke="#e6562d" stroke-width="1.51"/><path d="M1793,-114L1703,42L1832,-26Z" fill="#ed8e5d" stroke="#ed8e5d" stroke-width="1.51"/><path d="M449,-186L580,-152L887,-139Z" fill="#ffd585" stroke="#ffd585" stroke-width="1.51"/><path d="M1351,1223L1175,1259L1521,1253Z" fill="#c52627" stroke="#c52627" stroke-width="1.51"/><path d="M1623,731L1778,921L1795,750Z" fill="#e12b24" stroke="#e12b24" stroke-width="1.51"/><path d="M1617,616L1623,731L1795,750Z" fill="#ea3e26" stroke="#ea3e26" stroke-width="1.51"/><path d="M1624,475L1617,616L1817,508Z" fill="#eb5d2e" stroke="#eb5d2e" stroke-width="1.51"/><path d="M1703,42L1700,200L1820,163Z" fill="#ec864b" stroke="#ec864b" stroke-width="1.51"/><path d="M1778,921L1660,1063L1790,1062Z" fill="#d00f22" stroke="#d00f22" stroke-width="1.51"/><path d="M1633,945L1660,1063L1778,921Z" fill="#d71320" stroke="#d71320" stroke-width="1.51"/><path d="M1623,731L1633,945L1778,921Z" fill="#e12320" stroke="#e12320" stroke-width="1.51"/><path d="M1700,200L1647,346L1804,265Z" fill="#ec793d" stroke="#ec793d" stroke-width="1.51"/><path d="M1637,-203L1703,42L1793,-114Z" fill="#f29362" stroke="#f29362" stroke-width="1.51"/><path d="M1623,731L1516,766L1633,945Z" fill="#ea2d20" stroke="#ea2d20" stroke-width="1.51"/><path d="M1513,-170L1530,-5L1637,-203Z" fill="#fc9965" stroke="#fc9965" stroke-width="1.51"/><path d="M1487,174L1647,346L1700,200Z" fill="#f37f3e" stroke="#f37f3e" stroke-width="1.51"/><path d="M1487,174L1700,200L1703,42Z" fill="#f38949" stroke="#f38949" stroke-width="1.51"/><path d="M1530,-5L1487,174L1703,42Z" fill="#f88f4f" stroke="#f88f4f" stroke-width="1.51"/><path d="M1637,-203L1530,-5L1703,42Z" fill="#f7945d" stroke="#f7945d" stroke-width="1.51"/><path d="M1516,766L1462,919L1633,945Z" fill="#e8281f" stroke="#e8281f" stroke-width="1.51"/><path d="M1487,174L1478,317L1647,346Z" fill="#f67e3b" stroke="#f67e3b" stroke-width="1.51"/><path d="M1633,945L1511,1045L1660,1063Z" fill="#d8141f" stroke="#d8141f" stroke-width="1.51"/><path d="M1521,1253L1648,1248L1660,1063Z" fill="#c30c22" stroke="#c30c22" stroke-width="1.51"/><path d="M1511,1045L1521,1253L1660,1063Z" fill="#d01122" stroke="#d01122" stroke-width="1.51"/><path d="M1617,616L1525,625L1623,731Z" fill="#f04926" stroke="#f04926" stroke-width="1.51"/><path d="M1525,625L1617,616L1624,475Z" fill="#f0592a" stroke="#f0592a" stroke-width="1.51"/><path d="M1455,440L1624,475L1647,346Z" fill="#f26d30" stroke="#f26d30" stroke-width="1.51"/><path d="M1478,317L1455,440L1647,346Z" fill="#f57533" stroke="#f57533" stroke-width="1.51"/><path d="M1455,440L1525,625L1624,475Z" fill="#f3652d" stroke="#f3652d" stroke-width="1.51"/><path d="M1462,919L1511,1045L1633,945Z" fill="#e11e1f" stroke="#e11e1f" stroke-width="1.51"/><path d="M1525,625L1516,766L1623,731Z" fill="#f14024" stroke="#f14024" stroke-width="1.51"/><path d="M859,1231L756,1250L1056,1239Z" fill="#ca5734" stroke="#ca5734" stroke-width="1.51"/><path d="M1391,289L1478,317L1487,174Z" fill="#f9853f" stroke="#f9853f" stroke-width="1.51"/><path d="M1327,1088L1351,1223L1511,1045Z" fill="#d82526" stroke="#d82526" stroke-width="1.51"/><path d="M1319,-166L1319,-9L1513,-170Z" fill="#ffa268" stroke="#ffa268" stroke-width="1.51"/><path d="M1330,818L1462,919L1516,766Z" fill="#ef3723" stroke="#ef3723" stroke-width="1.51"/><path d="M1511,1045L1351,1223L1521,1253Z" fill="#cc1d24" stroke="#cc1d24" stroke-width="1.51"/><path d="M1371,610L1516,766L1525,625Z" fill="#f54e28" stroke="#f54e28" stroke-width="1.51"/><path d="M1455,440L1371,610L1525,625Z" fill="#f6632d" stroke="#f6632d" stroke-width="1.51"/><path d="M1352,108L1487,174L1530,-5Z" fill="#fc9350" stroke="#fc9350" stroke-width="1.51"/><path d="M1319,-9L1352,108L1530,-5Z" fill="#ff9958" stroke="#ff9958" stroke-width="1.51"/><path d="M1513,-170L1319,-9L1530,-5Z" fill="#fe9c61" stroke="#fe9c61" stroke-width="1.51"/><path d="M1371,610L1330,818L1516,766Z" fill="#f74527" stroke="#f74527" stroke-width="1.51"/><path d="M1462,919L1327,1088L1511,1045Z" fill="#e02622" stroke="#e02622" stroke-width="1.51"/><path d="M1332,464L1371,610L1455,440Z" fill="#f96e31" stroke="#f96e31" stroke-width="1.51"/><path d="M1313,930L1327,1088L1462,919Z" fill="#e62e22" stroke="#e62e22" stroke-width="1.51"/><path d="M1391,289L1455,440L1478,317Z" fill="#f87c36" stroke="#f87c36" stroke-width="1.51"/><path d="M1352,108L1391,289L1487,174Z" fill="#fc8e47" stroke="#fc8e47" stroke-width="1.51"/><path d="M580,-152L767,-128L887,-139Z" fill="#ffcf7f" stroke="#ffcf7f" stroke-width="1.51"/><path d="M1391,289L1332,464L1455,440Z" fill="#fa7935" stroke="#fa7935" stroke-width="1.51"/><path d="M1330,818L1313,930L1462,919Z" fill="#ee3522" stroke="#ee3522" stroke-width="1.51"/><path d="M1210,662L1330,818L1371,610Z" fill="#fb532a" stroke="#fb532a" stroke-width="1.51"/><path d="M1352,108L1170,168L1391,289Z" fill="#ff944a" stroke="#ff944a" stroke-width="1.51"/><path d="M1170,168L1234,347L1391,289Z" fill="#ff8e42" stroke="#ff8e42" stroke-width="1.51"/><path d="M1234,347L1332,464L1391,289Z" fill="#fd8038" stroke="#fd8038" stroke-width="1.51"/><path d="M887,-139L1069,-130L1214,-189Z" fill="#ffbb77" stroke="#ffbb77" stroke-width="1.51"/><path d="M1332,464L1210,662L1371,610Z" fill="#fb6830" stroke="#fb6830" stroke-width="1.51"/><path d="M1319,-166L1214,-189L1319,-9Z" fill="#ffa76b" stroke="#ffa76b" stroke-width="1.51"/><path d="M1145,1118L1175,1259L1327,1088Z" fill="#d7372a" stroke="#d7372a" stroke-width="1.51"/><path d="M1210,662L1161,794L1330,818Z" fill="#fb502a" stroke="#fb502a" stroke-width="1.51"/><path d="M1234,347L1216,419L1332,464Z" fill="#fe7f38" stroke="#fe7f38" stroke-width="1.51"/><path d="M1216,419L1210,662L1332,464Z" fill="#fd7534" stroke="#fd7534" stroke-width="1.51"/><path d="M1327,1088L1175,1259L1351,1223Z" fill="#d02d28" stroke="#d02d28" stroke-width="1.51"/><path d="M1319,-9L1213,24L1352,108Z" fill="#ff9e5a" stroke="#ff9e5a" stroke-width="1.51"/><path d="M1213,24L1170,168L1352,108Z" fill="#ff9f55" stroke="#ff9f55" stroke-width="1.51"/><path d="M1201,890L1145,1118L1313,930Z" fill="#eb3e26" stroke="#eb3e26" stroke-width="1.51"/><path d="M1214,-189L1213,24L1319,-9Z" fill="#ffa766" stroke="#ffa766" stroke-width="1.51"/><path d="M1313,930L1145,1118L1327,1088Z" fill="#e43527" stroke="#e43527" stroke-width="1.51"/><path d="M1201,890L1313,930L1330,818Z" fill="#f23d24" stroke="#f23d24" stroke-width="1.51"/><path d="M1161,794L1201,890L1330,818Z" fill="#f64927" stroke="#f64927" stroke-width="1.51"/><path d="M1011,1094L1145,1118L1201,890Z" fill="#e6482a" stroke="#e6482a" stroke-width="1.51"/><path d="M999,882L1011,1094L1201,890Z" fill="#ee5229" stroke="#ee5229" stroke-width="1.51"/><path d="M1069,-130L1213,24L1214,-189Z" fill="#ffaf6d" stroke="#ffaf6d" stroke-width="1.51"/><path d="M992,471L1060,615L1216,419Z" fill="#fd8539" stroke="#fd8539" stroke-width="1.51"/><path d="M1060,615L1210,662L1216,419Z" fill="#fd7735" stroke="#fd7735" stroke-width="1.51"/><path d="M1049,343L1216,419L1234,347Z" fill="#ff8c3d" stroke="#ff8c3d" stroke-width="1.51"/><path d="M1170,168L1049,343L1234,347Z" fill="#ff9644" stroke="#ff9644" stroke-width="1.51"/><path d="M1060,615L1161,794L1210,662Z" fill="#fd652f" stroke="#fd652f" stroke-width="1.51"/><path d="M989,32L1170,168L1213,24Z" fill="#ffaa5c" stroke="#ffaa5c" stroke-width="1.51"/><path d="M1069,-130L989,32L1213,24Z" fill="#ffb267" stroke="#ffb267" stroke-width="1.51"/><path d="M1049,343L992,471L1216,419Z" fill="#fe8f3d" stroke="#fe8f3d" stroke-width="1.51"/><path d="M1008,181L1049,343L1170,168Z" fill="#ffa24d" stroke="#ffa24d" stroke-width="1.51"/><path d="M1145,1118L1056,1239L1175,1259Z" fill="#cf412d" stroke="#cf412d" stroke-width="1.51"/><path d="M1161,794L1021,816L1201,890Z" fill="#f6552a" stroke="#f6552a" stroke-width="1.51"/><path d="M1021,816L999,882L1201,890Z" fill="#f4592b" stroke="#f4592b" stroke-width="1.51"/><path d="M1060,615L1021,816L1161,794Z" fill="#fc632f" stroke="#fc632f" stroke-width="1.51"/><path d="M989,32L1008,181L1170,168Z" fill="#ffae59" stroke="#ffae59" stroke-width="1.51"/><path d="M999,882L929,970L1011,1094Z" fill="#eb5b2c" stroke="#eb5b2c" stroke-width="1.51"/><path d="M1011,1094L1056,1239L1145,1118Z" fill="#d94a2e" stroke="#d94a2e" stroke-width="1.51"/><path d="M992,471L874,573L1060,615Z" fill="#fd8a3b" stroke="#fd8a3b" stroke-width="1.51"/><path d="M862,778L1021,816L1060,615Z" fill="#fd6e32" stroke="#fd6e32" stroke-width="1.51"/><path d="M874,573L862,778L1060,615Z" fill="#fd7e37" stroke="#fd7e37" stroke-width="1.51"/><path d="M887,-23L989,32L1069,-130Z" fill="#ffbc6d" stroke="#ffbc6d" stroke-width="1.51"/><path d="M887,-139L887,-23L1069,-130Z" fill="#ffc175" stroke="#ffc175" stroke-width="1.51"/><path d="M1008,181L839,271L1049,343Z" fill="#ffa84d" stroke="#ffa84d" stroke-width="1.51"/><path d="M1011,1094L859,1231L1056,1239Z" fill="#d35331" stroke="#d35331" stroke-width="1.51"/><path d="M849,420L992,471L1049,343Z" fill="#fe9941" stroke="#fe9941" stroke-width="1.51"/><path d="M839,271L849,420L1049,343Z" fill="#fea345" stroke="#fea345" stroke-width="1.51"/><path d="M989,32L856,160L1008,181Z" fill="#ffb65c" stroke="#ffb65c" stroke-width="1.51"/><path d="M929,970L885,1078L1011,1094Z" fill="#e55b2f" stroke="#e55b2f" stroke-width="1.51"/><path d="M885,1078L859,1231L1011,1094Z" fill="#dc5932" stroke="#dc5932" stroke-width="1.51"/><path d="M862,778L999,882L1021,816Z" fill="#f7682f" stroke="#f7682f" stroke-width="1.51"/><path d="M856,160L839,271L1008,181Z" fill="#ffb255" stroke="#ffb255" stroke-width="1.51"/><path d="M862,778L929,970L999,882Z" fill="#f5662e" stroke="#f5662e" stroke-width="1.51"/><path d="M887,-23L856,160L989,32Z" fill="#ffbc64" stroke="#ffbc64" stroke-width="1.51"/><path d="M849,420L874,573L992,471Z" fill="#fe963f" stroke="#fe963f" stroke-width="1.51"/><path d="M749,6L856,160L887,-23Z" fill="#ffc168" stroke="#ffc168" stroke-width="1.51"/><path d="M724,931L885,1078L929,970Z" fill="#eb6430" stroke="#eb6430" stroke-width="1.51"/><path d="M862,778L724,931L929,970Z" fill="#f46b2f" stroke="#f46b2f" stroke-width="1.51"/><path d="M839,271L742,306L849,420Z" fill="#feaa49" stroke="#feaa49" stroke-width="1.51"/><path d="M749,6L736,106L856,160Z" fill="#ffc165" stroke="#ffc165" stroke-width="1.51"/><path d="M707,1111L756,1250L859,1231Z" fill="#d26136" stroke="#d26136" stroke-width="1.51"/><path d="M695,572L720,815L862,778Z" fill="#fe8038" stroke="#fe8038" stroke-width="1.51"/><path d="M720,815L724,931L862,778Z" fill="#f87433" stroke="#f87433" stroke-width="1.51"/><path d="M849,420L749,467L874,573Z" fill="#fe9b41" stroke="#fe9b41" stroke-width="1.51"/><path d="M695,572L862,778L874,573Z" fill="#fe883b" stroke="#fe883b" stroke-width="1.51"/><path d="M707,1111L859,1231L885,1078Z" fill="#dc6034" stroke="#dc6034" stroke-width="1.51"/><path d="M724,931L707,1111L885,1078Z" fill="#e76833" stroke="#e76833" stroke-width="1.51"/><path d="M767,-128L749,6L887,-23Z" fill="#ffc773" stroke="#ffc773" stroke-width="1.51"/><path d="M767,-128L887,-23L887,-139Z" fill="#ffc778" stroke="#ffc778" stroke-width="1.51"/><path d="M370,1255L281,1279L608,1282Z" fill="#c77447" stroke="#c77447" stroke-width="1.51"/><path d="M749,467L695,572L874,573Z" fill="#fe9941" stroke="#fe9941" stroke-width="1.51"/><path d="M736,106L742,306L839,271Z" fill="#ffb756" stroke="#ffb756" stroke-width="1.51"/><path d="M736,106L839,271L856,160Z" fill="#ffba5a" stroke="#ffba5a" stroke-width="1.51"/><path d="M742,306L749,467L849,420Z" fill="#fea646" stroke="#fea646" stroke-width="1.51"/><path d="M695,572L608,600L720,815Z" fill="#ff8d3d" stroke="#ff8d3d" stroke-width="1.51"/><path d="M530,162L577,307L736,106Z" fill="#fec460" stroke="#fec460" stroke-width="1.51"/><path d="M736,106L577,307L742,306Z" fill="#ffbb57" stroke="#ffbb57" stroke-width="1.51"/><path d="M742,306L576,440L749,467Z" fill="#feaa48" stroke="#feaa48" stroke-width="1.51"/><path d="M707,1111L608,1282L756,1250Z" fill="#cf6538" stroke="#cf6538" stroke-width="1.51"/><path d="M580,-152L749,6L767,-128Z" fill="#ffcf7a" stroke="#ffcf7a" stroke-width="1.51"/><path d="M608,600L529,783L720,815Z" fill="#ff873c" stroke="#ff873c" stroke-width="1.51"/><path d="M538,1080L707,1111L724,931Z" fill="#e86f36" stroke="#e86f36" stroke-width="1.51"/><path d="M577,307L576,440L742,306Z" fill="#feb34e" stroke="#feb34e" stroke-width="1.51"/><path d="M720,815L619,879L724,931Z" fill="#f67734" stroke="#f67734" stroke-width="1.51"/><path d="M576,440L695,572L749,467Z" fill="#fea345" stroke="#fea345" stroke-width="1.51"/><path d="M529,42L736,106L749,6Z" fill="#ffca6c" stroke="#ffca6c" stroke-width="1.51"/><path d="M580,-152L529,42L749,6Z" fill="#ffd178" stroke="#ffd178" stroke-width="1.51"/><path d="M619,879L538,1080L724,931Z" fill="#f07535" stroke="#f07535" stroke-width="1.51"/><path d="M529,42L530,162L736,106Z" fill="#ffcc6a" stroke="#ffcc6a" stroke-width="1.51"/><path d="M529,783L619,879L720,815Z" fill="#f97f38" stroke="#f97f38" stroke-width="1.51"/><path d="M538,1080L608,1282L707,1111Z" fill="#d96d3a" stroke="#d96d3a" stroke-width="1.51"/><path d="M576,440L608,600L695,572Z" fill="#fea245" stroke="#fea245" stroke-width="1.51"/><path d="M418,-48L529,42L580,-152Z" fill="#ffd981" stroke="#ffd981" stroke-width="1.51"/><path d="M576,440L395,593L608,600Z" fill="#ffa84c" stroke="#ffa84c" stroke-width="1.51"/><path d="M395,593L529,783L608,600Z" fill="#ff9947" stroke="#ff9947" stroke-width="1.51"/><path d="M538,1080L403,1117L608,1282Z" fill="#db7441" stroke="#db7441" stroke-width="1.51"/><path d="M403,1117L370,1255L608,1282Z" fill="#d17445" stroke="#d17445" stroke-width="1.51"/><path d="M433,913L538,1080L619,879Z" fill="#f27c3b" stroke="#f27c3b" stroke-width="1.51"/><path d="M529,783L433,913L619,879Z" fill="#f9833d" stroke="#f9833d" stroke-width="1.51"/><path d="M377,505L395,593L576,440Z" fill="#ffaf52" stroke="#ffaf52" stroke-width="1.51"/><path d="M395,593L377,750L529,783Z" fill="#ff9749" stroke="#ff9749" stroke-width="1.51"/><path d="M409,183L398,312L530,162Z" fill="#ffcc68" stroke="#ffcc68" stroke-width="1.51"/><path d="M398,312L576,440L577,307Z" fill="#ffba55" stroke="#ffba55" stroke-width="1.51"/><path d="M530,162L398,312L577,307Z" fill="#ffc45f" stroke="#ffc45f" stroke-width="1.51"/><path d="M449,-186L418,-48L580,-152Z" fill="#ffde8c" stroke="#ffde8c" stroke-width="1.51"/><path d="M398,312L377,505L576,440Z" fill="#ffb856" stroke="#ffb856" stroke-width="1.51"/><path d="M529,42L409,183L530,162Z" fill="#ffd16f" stroke="#ffd16f" stroke-width="1.51"/><path d="M433,913L403,1117L538,1080Z" fill="#ea7d42" stroke="#ea7d42" stroke-width="1.51"/><path d="M377,750L433,913L529,783Z" fill="#fc8c44" stroke="#fc8c44" stroke-width="1.51"/><path d="M418,-48L409,183L529,42Z" fill="#ffd779" stroke="#ffd779" stroke-width="1.51"/><path d="M79,1232L-81,1274L281,1279Z" fill="#cc815b" stroke="#cc815b" stroke-width="1.51"/><path d="M281,178L409,183L418,-48Z" fill="#ffd97a" stroke="#ffd97a" stroke-width="1.51"/><path d="M224,21L281,178L418,-48Z" fill="#ffdf83" stroke="#ffdf83" stroke-width="1.51"/><path d="M235,1082L403,1117L433,913Z" fill="#eb8448" stroke="#eb8448" stroke-width="1.51"/><path d="M256,886L235,1082L433,913Z" fill="#f38949" stroke="#f38949" stroke-width="1.51"/><path d="M377,750L256,886L433,913Z" fill="#fb8f49" stroke="#fb8f49" stroke-width="1.51"/><path d="M221,-186L418,-48L449,-186Z" fill="#ffe695" stroke="#ffe695" stroke-width="1.51"/><path d="M248,467L377,505L398,312Z" fill="#ffbe5e" stroke="#ffbe5e" stroke-width="1.51"/><path d="M244,813L256,886L377,750Z" fill="#fd954f" stroke="#fd954f" stroke-width="1.51"/><path d="M224,653L377,750L395,593Z" fill="#ffa453" stroke="#ffa453" stroke-width="1.51"/><path d="M235,307L248,467L398,312Z" fill="#ffc664" stroke="#ffc664" stroke-width="1.51"/><path d="M281,178L398,312L409,183Z" fill="#ffd16d" stroke="#ffd16d" stroke-width="1.51"/><path d="M221,-186L224,21L418,-48Z" fill="#ffe692" stroke="#ffe692" stroke-width="1.51"/><path d="M235,1082L281,1279L370,1255Z" fill="#d47e4e" stroke="#d47e4e" stroke-width="1.51"/><path d="M281,178L235,307L398,312Z" fill="#ffcf6d" stroke="#ffcf6d" stroke-width="1.51"/><path d="M235,1082L370,1255L403,1117Z" fill="#dd7f4c" stroke="#dd7f4c" stroke-width="1.51"/><path d="M248,467L224,653L377,505Z" fill="#ffb65d" stroke="#ffb65d" stroke-width="1.51"/><path d="M377,505L224,653L395,593Z" fill="#ffae57" stroke="#ffae57" stroke-width="1.51"/><path d="M224,653L244,813L377,750Z" fill="#ff9c52" stroke="#ff9c52" stroke-width="1.51"/><path d="M-231,-142L-51,-146L76,-198Z" fill="#fff5b5" stroke="#fff5b5" stroke-width="1.51"/><path d="M224,653L144,807L244,813Z" fill="#ff9d57" stroke="#ff9d57" stroke-width="1.51"/><path d="M124,603L224,653L248,467Z" fill="#ffb461" stroke="#ffb461" stroke-width="1.51"/><path d="M108,942L235,1082L256,886Z" fill="#f48d51" stroke="#f48d51" stroke-width="1.51"/><path d="M107,176L235,307L281,178Z" fill="#ffd678" stroke="#ffd678" stroke-width="1.51"/><path d="M224,21L107,176L281,178Z" fill="#ffdf83" stroke="#ffdf83" stroke-width="1.51"/><path d="M235,1082L136,1109L281,1279Z" fill="#de8353" stroke="#de8353" stroke-width="1.51"/><path d="M136,1109L79,1232L281,1279Z" fill="#d58257" stroke="#d58257" stroke-width="1.51"/><path d="M76,-198L64,-8L221,-186Z" fill="#ffeea4" stroke="#ffeea4" stroke-width="1.51"/><path d="M221,-186L64,-8L224,21Z" fill="#ffe999" stroke="#ffe999" stroke-width="1.51"/><path d="M108,942L136,1109L235,1082Z" fill="#ec8b56" stroke="#ec8b56" stroke-width="1.51"/><path d="M94,333L95,451L235,307Z" fill="#ffcb6e" stroke="#ffcb6e" stroke-width="1.51"/><path d="M95,451L124,603L248,467Z" fill="#ffbd67" stroke="#ffbd67" stroke-width="1.51"/><path d="M235,307L95,451L248,467Z" fill="#ffc469" stroke="#ffc469" stroke-width="1.51"/><path d="M244,813L144,807L256,886Z" fill="#fd9653" stroke="#fd9653" stroke-width="1.51"/><path d="M144,807L108,942L256,886Z" fill="#fb9454" stroke="#fb9454" stroke-width="1.51"/><path d="M107,176L94,333L235,307Z" fill="#ffd476" stroke="#ffd476" stroke-width="1.51"/><path d="M64,-8L107,176L224,21Z" fill="#ffe48e" stroke="#ffe48e" stroke-width="1.51"/><path d="M124,603L144,807L224,653Z" fill="#ffa65d" stroke="#ffa65d" stroke-width="1.51"/><path d="M64,-8L-36,156L107,176Z" fill="#ffe58f" stroke="#ffe58f" stroke-width="1.51"/><path d="M108,942L-67,1079L136,1109Z" fill="#ed8e5c" stroke="#ed8e5c" stroke-width="1.51"/><path d="M-22,921L108,942L144,807Z" fill="#fb965a" stroke="#fb965a" stroke-width="1.51"/><path d="M-88,757L-22,921L144,807Z" fill="#ff9d61" stroke="#ff9d61" stroke-width="1.51"/><path d="M124,603L-42,645L144,807Z" fill="#ffa963" stroke="#ffa963" stroke-width="1.51"/><path d="M-42,645L-88,757L144,807Z" fill="#ffa465" stroke="#ffa465" stroke-width="1.51"/><path d="M-51,-146L64,-8L76,-198Z" fill="#fff0a9" stroke="#fff0a9" stroke-width="1.51"/><path d="M-22,921L-67,1079L108,942Z" fill="#f4925d" stroke="#f4925d" stroke-width="1.51"/><path d="M95,451L-12,431L124,603Z" fill="#ffc06d" stroke="#ffc06d" stroke-width="1.51"/><path d="M-12,431L-42,645L124,603Z" fill="#ffbb6d" stroke="#ffbb6d" stroke-width="1.51"/><path d="M-67,1079L79,1232L136,1109Z" fill="#e28a5d" stroke="#e28a5d" stroke-width="1.51"/><path d="M-36,156L-85,295L94,333Z" fill="#ffd983" stroke="#ffd983" stroke-width="1.51"/><path d="M94,333L-12,431L95,451Z" fill="#ffc972" stroke="#ffc972" stroke-width="1.51"/><path d="M-36,156L94,333L107,176Z" fill="#ffdb82" stroke="#ffdb82" stroke-width="1.51"/><path d="M-93,45L-36,156L64,-8Z" fill="#ffe998" stroke="#ffe998" stroke-width="1.51"/><path d="M-85,295L-12,431L94,333Z" fill="#ffd078" stroke="#ffd078" stroke-width="1.51"/><path d="M-67,1079L-81,1274L79,1232Z" fill="#d88863" stroke="#d88863" stroke-width="1.51"/><path d="M-51,-146L-93,45L64,-8Z" fill="#ffeea4" stroke="#ffeea4" stroke-width="1.51"/><path d="M-206,1198L-81,1274L-67,1079Z" fill="#db8c68" stroke="#db8c68" stroke-width="1.51"/><path d="M-207,463L-160,646L-42,645Z" fill="#ffbd77" stroke="#ffbd77" stroke-width="1.51"/><path d="M-215,959L-67,1079L-22,921Z" fill="#f59565" stroke="#f59565" stroke-width="1.51"/><path d="M-88,757L-215,959L-22,921Z" fill="#fe9c66" stroke="#fe9c66" stroke-width="1.51"/><path d="M-85,295L-168,330L-12,431Z" fill="#ffd27f" stroke="#ffd27f" stroke-width="1.51"/><path d="M-168,330L-207,463L-12,431Z" fill="#ffce7f" stroke="#ffce7f" stroke-width="1.51"/><path d="M-207,463L-42,645L-12,431Z" fill="#ffc477" stroke="#ffc477" stroke-width="1.51"/><path d="M-231,-142L-93,45L-51,-146Z" fill="#fff3b0" stroke="#fff3b0" stroke-width="1.51"/><path d="M-231,-142L-244,10L-93,45Z" fill="#fff3ae" stroke="#fff3ae" stroke-width="1.51"/><path d="M-215,959L-174,1082L-67,1079Z" fill="#f09469" stroke="#f09469" stroke-width="1.51"/><path d="M-174,1082L-206,1198L-67,1079Z" fill="#e7906b" stroke="#e7906b" stroke-width="1.51"/><path d="M-160,646L-88,757L-42,645Z" fill="#ffae6f" stroke="#ffae6f" stroke-width="1.51"/><path d="M-227,188L-85,295L-36,156Z" fill="#ffe18f" stroke="#ffe18f" stroke-width="1.51"/><path d="M-93,45L-227,188L-36,156Z" fill="#ffe898" stroke="#ffe898" stroke-width="1.51"/><path d="M-224,749L-215,959L-88,757Z" fill="#ffa36d" stroke="#ffa36d" stroke-width="1.51"/><path d="M-244,10L-227,188L-93,45Z" fill="#ffeda3" stroke="#ffeda3" stroke-width="1.51"/><path d="M-160,646L-224,749L-88,757Z" fill="#ffac71" stroke="#ffac71" stroke-width="1.51"/><path d="M-227,188L-168,330L-85,295Z" fill="#ffdc8c" stroke="#ffdc8c" stroke-width="1.51"/><path d="M-207,463L-224,749L-160,646Z" fill="#ffba79" stroke="#ffba79" stroke-width="1.51"/><path d="M-227,188L-207,463L-168,330Z" fill="#ffd889" stroke="#ffd889" stroke-width="1.51"/><path d="M-215,959L-206,1198L-174,1082Z" fill="#ec946d" stroke="#ec946d" stroke-width="1.51"/><path d="M-227,188L-224,749L-207,463Z" fill="#ffcb82" stroke="#ffcb82" stroke-width="1.51"/><path d="M-227,188L-244,10L-224,749Z" fill="#ffda8c" stroke="#ffda8c" stroke-width="1.51"/></svg>